<?xml version="1.0" encoding="utf-8"?>
<!-- Generator: Adobe Illustrator 27.5.0, SVG Export Plug-In . SVG Version: 6.00 Build 0)  -->
<svg version="1.1" xmlns="http://www.w3.org/2000/svg" xmlns:xlink="http://www.w3.org/1999/xlink" x="0px" y="0px"
	 viewBox="0 0 500 500" style="enable-background:new 0 0 500 500;" xml:space="preserve">
<g id="Floor">
	<ellipse id="Floor_13_" style="fill:#F5F5F5;" cx="254.062" cy="347.942" rx="223.873" ry="137.001"/>
</g>
<g id="Shadows">
	<path id="Shadow_15_" style="fill:#E0E0E0;" d="M367.343,404.793c-0.859,0-2.138-0.147-3.345-0.843l-39.578-22.852
		c-1.417-0.817-2.264-2.188-2.264-3.662c0-1.476,0.847-2.846,2.264-3.664l65.538-37.838c1.207-0.697,2.485-0.844,3.346-0.844
		c0.859,0,2.138,0.147,3.345,0.844l39.577,22.851c1.418,0.817,2.265,2.186,2.265,3.663c0,1.476-0.847,2.845-2.266,3.663
		l-65.537,37.838C369.481,404.646,368.203,404.793,367.343,404.793z"/>
	<path id="Shadow_8_" style="fill:#E0E0E0;" d="M284.16,454.889c-5.15,0-10.139-0.566-14.825-1.685
		c-4.821-1.145-9.227-2.771-13.09-4.833l-0.098-0.054c-0.792-0.445-1.817-1.06-3.133-1.88c-1.236-0.771-2.504-1.585-3.809-2.44
		c-1.307-0.855-2.533-1.677-3.679-2.466c-1.193-0.815-2.111-1.474-2.791-2.002c-3.386-2.647-5.941-5.681-7.612-9.026
		c-1.837-3.687-2.377-7.576-1.607-11.564c0.73-3.781,2.753-7.55,6.014-11.197c3.083-3.449,7.399-6.62,13.194-9.692
		c6.422-3.404,12.643-5.904,18.491-7.433c5.873-1.534,11.518-2.335,16.778-2.378l0.498-0.002c5.134,0,10.031,0.639,14.556,1.896
		c4.583,1.276,8.912,3.004,12.869,5.137c1.574,0.872,3.264,1.901,5.076,3.089c1.836,1.203,3.372,2.282,4.693,3.297
		c2.459,1.818,4.191,3.848,5.15,6.032c0.925,2.13,1.223,4.266,0.893,6.372c0.147-0.01,0.293-0.017,0.441-0.02l0.275-0.004
		c1.867,0,3.591,0.552,4.997,1.597c1.904,1.347,2.862,3.579,2.508,5.881c-0.246,1.591-0.657,3.307-1.221,5.106
		c-0.676,2.144-1.898,4.342-3.637,6.539c-1.625,2.057-3.795,4.146-6.632,6.387c-2.74,2.161-6.376,4.447-10.808,6.796
		c-5.548,2.941-11.207,5.121-16.82,6.479c-5.585,1.348-11.079,2.043-16.332,2.067L284.16,454.889z M280.652,420.997
		c0.179,0.13,0.381,0.27,0.607,0.418c1.772,1.161,3.524,1.845,5.213,2.034c0.316,0.035,0.624,0.054,0.919,0.054
		c0.756,0,1.464-0.116,2.143-0.353c-0.164-0.116-0.345-0.24-0.544-0.371c-1.788-1.171-3.563-1.874-5.273-2.089
		c-0.309-0.038-0.616-0.059-0.913-0.059C282.063,420.632,281.352,420.752,280.652,420.997z"/>
	<path id="Shadow_3_" style="fill:#E0E0E0;" d="M166.831,436.655L38.104,362.504c-2.715-1.568-2.715-4.109,0-5.677l261.247-150.772
		c2.715-1.568,7.118-1.568,9.833,0l128.728,74.151c2.715,1.568,2.715,4.109,0,5.677L176.664,436.655
		C173.949,438.223,169.546,438.223,166.831,436.655z"/>
</g>
<g id="Clouds">
	<g id="Clouds_7_">
		<g id="XMLID_746_">
			<path id="XMLID_923_" style="fill:#EBEBEB;" d="M158.204,59.36l-6.552,3.783c0.032-0.293,0.055-0.583,0.055-0.867v-1.898
				c0-3.378-2.371-4.747-5.297-3.058c-1.185,0.684-2.275,1.768-3.157,3.036c-0.479-4.247-3.811-5.829-7.859-3.493
				c-4.376,2.527-7.924,8.672-7.924,13.725v2.84c0,1.309,0.242,2.411,0.671,3.29l-5.442,3.142c-1.623,0.937-2.938,3.215-2.938,5.089
				c0,1.874,1.315,2.633,2.938,1.696l35.505-20.498c1.623-0.937,2.938-3.215,2.938-5.089
				C161.142,59.183,159.827,58.423,158.204,59.36z"/>
		</g>
		<g id="XMLID_1345_">
			<path id="XMLID_1348_" style="fill:#EBEBEB;" d="M114.894,41.957l-3.614,1.39v-7.962c0-6.312-5.034-7.825-10.5-4.669l0,0
				c-5.466,3.156-9.897,10.831-9.897,17.142v1.156c-1.24-0.495-2.842-0.303-4.593,0.708l0,0c-3.934,2.271-7.122,7.794-7.122,12.336
				v0.525l-5.039,2.91c-2.59,1.495-4.69,5.132-4.69,8.123c0,2.991,2.1,4.203,4.69,2.708l40.766-23.536
				c2.59-1.496,4.69-5.133,4.69-8.124C119.584,41.674,117.484,40.461,114.894,41.957z"/>
		</g>
	</g>
</g>
<g id="Plant">
	<g id="Plants_4_">
		<g id="XMLID_541_">
			<g id="XMLID_635_">
				<path id="XMLID_681_" style="fill:#27DEBF;" d="M60.934,333.554l6.806-3.933c0,0,4.051-16.832,2.437-31.978
					c-2.27-21.295-16.287-29.307-21.617-27.471c-5.33,1.836-6.874,8.033,1.946,20.716C55.709,298.371,62.101,313.957,60.934,333.554
					z"/>
			</g>
			<g id="XMLID_574_" style="opacity:0.15;">
				<path id="XMLID_630_" d="M60.934,333.554l6.806-3.933c0,0,4.051-16.832,2.437-31.978c-2.27-21.295-16.287-29.307-21.617-27.471
					c-5.33,1.836-6.874,8.033,1.946,20.716C55.709,298.371,62.101,313.957,60.934,333.554z"/>
			</g>
			<g id="XMLID_542_">
				<path id="XMLID_543_" style="fill:#FFFFFF;" d="M63.754,325.285c-0.022-0.001-0.043-0.004-0.065-0.008
					c-0.256-0.049-0.425-0.296-0.376-0.552c3.731-19.641-3.13-41.712-11.627-50.896c-0.177-0.191-0.166-0.49,0.026-0.667
					c0.192-0.175,0.49-0.165,0.667,0.026c8.651,9.351,15.647,31.783,11.861,51.713C64.197,325.135,63.985,325.296,63.754,325.285z"
					/>
			</g>
		</g>
		<g id="XMLID_492_">
			<g id="XMLID_539_">
				<path id="XMLID_540_" style="fill:#27DEBF;" d="M42.128,346.833c-1.075,0.547-3.935-1.9-4.732-2.495
					c-1.364-1.019-2.441-2.418-3.125-3.974c-0.796-1.811-0.923-3.715-0.547-5.655c0.195-1.006,0.528-1.979,0.861-2.949
					c0.326-0.952,0.653-1.903,0.979-2.855c0.322-0.939,0.648-1.911,0.572-2.901c-0.154-1.994-1.842-3.471-3.381-4.749
					c-1.701-1.413-3.454-3.253-3.324-5.638c0.101-1.84,1.14-3.501,2.353-4.888c1.213-1.387,2.631-2.595,3.739-4.068
					c0.797-1.06,1.441-2.32,1.387-3.646c-0.034-0.824-0.335-1.613-0.69-2.356c-0.764-1.596-1.804-3.074-2.3-4.772
					c-0.497-1.698-0.31-3.769,1.053-4.897c1.118-0.926,2.714-0.983,4.156-0.814c1.334,0.156,2.611,0.826,3.75,1.536
					c3.681,2.297,5.616,6.891,9.552,8.714c1.518,0.703,3.21,0.926,4.804,1.434c1.594,0.509,3.2,1.417,3.873,2.949
					c1.327,3.021-1.594,6.514-0.715,9.693c0.778,2.814,3.414,4.009,4.799,6.579c0.605,1.124,0.694,2.393,0.524,3.659
					c-0.289,2.142-0.683,3.705-1.836,6.046c-0.953,1.934-3.636,5.59-3.636,5.59S42.293,346.749,42.128,346.833z"/>
			</g>
			<g id="XMLID_526_">
				<path id="XMLID_529_" style="fill:#FFFFFF;" d="M52.546,341.403c-0.006,0-0.013-0.001-0.013-0.001
					c-0.267-0.025-0.457-0.255-0.434-0.514c1.723-18.682-6.055-39.794-12.167-46.122c-0.181-0.187-0.176-0.486,0.012-0.668
					c0.188-0.181,0.486-0.175,0.668,0.012c6.234,6.455,14.175,27.92,12.428,46.865C53.017,341.228,52.798,341.415,52.546,341.403z"
					/>
			</g>
			<g id="XMLID_522_">
				<path id="XMLID_523_" style="fill:#FFFFFF;" d="M50.691,318.368c-0.046-0.002-0.093-0.011-0.138-0.028
					c-5.921-2.163-13.401-2.869-13.475-2.875c-0.26-0.024-0.451-0.254-0.427-0.514c0.024-0.259,0.232-0.455,0.514-0.427
					c0.076,0.008,7.675,0.724,13.713,2.93c0.245,0.089,0.371,0.36,0.281,0.605C51.085,318.258,50.892,318.379,50.691,318.368z"/>
			</g>
		</g>
	</g>
</g>
<g id="Device_1_">
	<g id="Device">
		<g id="Mobile">
			<path style="fill:#37474F;" d="M46.615,357.77l119.684,69.087c3.884,2.243,8.461,2.29,12.487,0.234l240.955-139.124
				c3.796-2.192,6.874-7.094,6.875-10.949c0.001-3.855-3.076-8.757-6.872-10.948l-119.241-68.844c-3.78-2.183-9.966-2.183-13.747,0
				L46.615,335.874c-3.796,2.192-6.873,7.093-6.873,10.948C39.742,350.677,42.819,355.579,46.615,357.77z"/>
			<path style="fill:#263238;" d="M166.299,426.857L46.615,357.77c-3.796-2.192-6.873-7.093-6.873-10.948
				c0-3.855,3.077-8.757,6.873-10.948l126.197-72.861v165.559C170.571,428.592,168.339,428.035,166.299,426.857z"/>
			<path style="fill:#455A64;" d="M169.146,414.547c3.333,1.924,8.788,1.924,12.121,0l238.506-137.7
				c5.128-2.96,5.128-7.805,0-10.766l-119.26-68.855c-3.78-2.183-9.966-2.183-13.747,0L46.626,335.874
				c-3.78,2.183-3.78,5.754,0,7.937L169.146,414.547z"/>
			<path style="fill:#37474F;" d="M180.729,400.682c3.607,2.083,9.456,2.083,13.063,0l205.227-118.489
				c3.607-2.083,3.607-5.459,0-7.542l-112.19-64.766c-3.592-2.074-9.471-2.074-13.063,0L68.538,328.375
				c-3.592,2.074-3.592,5.468,0,7.542L180.729,400.682z"/>
			<path style="fill:#263238;" d="M280.695,208.352c2.233,0.055,4.439,0.555,6.134,1.534l112.19,64.766
				c3.607,2.083,3.607,5.46,0,7.542l-22.238,12.84l-96.086-61.358V208.352z"/>
			<path style="fill:#FAFAFA;" d="M273.688,214.789c3.592-2.074,9.471-2.074,13.063,0l112.191,64.766
				c0.713,0.411,1.275,0.876,1.705,1.368c-0.42,0.457-0.961,0.886-1.628,1.27L193.792,400.682c-3.607,2.083-9.456,2.083-13.063,0
				L68.538,335.917c-0.704-0.407-1.266-0.865-1.694-1.353c0.418-0.462,0.946-0.898,1.617-1.285L273.688,214.789z"/>
			<g>
				<path style="fill:#263238;" d="M358.01,244.359l-19.883-11.48c-1.186-0.685-1.246-1.761-0.133-2.403
					c1.113-0.643,2.977-0.608,4.163,0.077l19.883,11.48c1.186,0.685,1.246,1.761,0.133,2.403
					C361.06,245.078,359.197,245.044,358.01,244.359z"/>
				<g>
					<path style="fill:#263238;" d="M323.867,224.676c-1.113-0.643-1.113-1.684,0-2.327c1.113-0.642,2.917-0.642,4.03,0
						c1.113,0.643,1.113,1.684,0,2.327C326.784,225.318,324.98,225.318,323.867,224.676z"/>
					<path style="fill:#263238;" d="M315.807,220.016c-1.113-0.642-1.113-1.684,0-2.327c1.113-0.642,2.917-0.642,4.03,0
						c1.113,0.643,1.113,1.684,0,2.327C318.724,220.658,316.92,220.658,315.807,220.016z"/>
					<path style="fill:#263238;" d="M380.289,257.246c-1.113-0.642-1.113-1.684,0-2.327c1.113-0.643,2.917-0.643,4.03,0
						c1.113,0.643,1.113,1.684,0,2.327C383.206,257.888,381.402,257.888,380.289,257.246z"/>
					<path style="fill:#263238;" d="M372.229,252.586c-1.113-0.643-1.113-1.684,0-2.327c1.113-0.643,2.917-0.643,4.03,0
						c1.113,0.643,1.113,1.684,0,2.327C375.146,253.229,373.342,253.229,372.229,252.586z"/>
				</g>
			</g>
		</g>
		<g id="Mail_Notification">
			<path id="XMLID_725_" style="fill:#27DEBF;" d="M175.716,367.588v0.434c0,0.694,0.487,1.538,1.088,1.885l23.346,13.479
				c0.601,0.347,1.576,0.347,2.176,0l38.659-22.32c0.601-0.347,1.088-1.191,1.088-1.885v-0.434c0-0.694-0.487-1.538-1.088-1.885
				l-23.346-13.479c-0.601-0.347-1.576-0.347-2.176,0l-38.659,22.32C176.203,366.05,175.716,366.894,175.716,367.588z"/>
			<path id="XMLID_724_" style="fill:#27DEBF;" d="M175.716,367.588v0.434c0,0.694,0.487,1.538,1.088,1.885l23.346,13.479
				c0.601,0.347,1.576,0.347,2.176,0l38.659-22.32c0.601-0.347,1.088-1.191,1.088-1.885v-0.434c0-0.694-0.487-1.538-1.088-1.885
				l-23.346-13.479c-0.601-0.347-1.576-0.347-2.176,0l-38.659,22.32C176.203,366.05,175.716,366.894,175.716,367.588z"/>
			<path style="opacity:0.3;fill:#FFFFFF;" d="M240.986,356.862l-23.346-13.479c-0.601-0.347-1.576-0.347-2.177,0l-14.225,8.213
				v32.05h-0.001c0.394,0,0.788-0.087,1.089-0.26l38.659-22.32c0.601-0.347,1.088-1.191,1.088-1.885v-0.434
				C242.074,358.053,241.587,357.209,240.986,356.862z"/>
			<path style="opacity:0.15;" d="M240.986,356.862l-23.346-13.479c-0.601-0.347-1.576-0.347-2.177,0l-14.225,8.213v32.05h-0.001
				c0.394,0,0.788-0.087,1.089-0.26l38.659-22.32c0.601-0.347,1.088-1.191,1.088-1.885v-0.434
				C242.074,358.053,241.587,357.209,240.986,356.862z"/>
			<path style="opacity:0.3;fill:#FFFFFF;" d="M201.239,351.596l-24.434,14.107c-0.601,0.347-1.088,1.191-1.088,1.885v0.434
				c0,0.694,0.487,1.538,1.088,1.885l23.346,13.479c0.3,0.173,0.694,0.26,1.088,0.26h0.001V351.596z"/>
			<path style="opacity:0.2;" d="M201.239,351.596l-24.434,14.107c-0.601,0.347-1.088,1.191-1.088,1.885v0.434
				c0,0.694,0.487,1.538,1.088,1.885l23.346,13.479c0.3,0.173,0.694,0.26,1.088,0.26h0.001V351.596z"/>
			<path id="XMLID_723_" style="fill:#27DEBF;" d="M196.412,378.28l-19.608-11.321c-0.601-0.347-0.601-0.91,0-1.257l38.659-22.32
				c0.601-0.347,1.576-0.347,2.176,0l23.346,13.479c0.601,0.347,0.601,0.91,0,1.257l-6.413,3.703l-2.245,1.296l-30.001,17.321
				c-0.601,0.347-1.576,0.347-2.177,0l-1.902-1.098L196.412,378.28z"/>
			<path id="XMLID_720_" style="opacity:0.3;fill:#FFFFFF;" d="M196.412,378.28l-19.608-11.321c-0.601-0.347-0.601-0.91,0-1.257
				l38.659-22.32c0.601-0.347,1.576-0.347,2.176,0l23.346,13.479c0.601,0.347,0.601,0.91,0,1.257l-6.413,3.703l-2.245,1.296
				l-30.001,17.321c-0.601,0.347-1.576,0.347-2.177,0l-1.902-1.098L196.412,378.28z"/>
			<path style="opacity:0.15;" d="M214.212,359.474l26.774-2.612l-26.538,1.503l3.192-14.981c-0.326-0.188-0.759-0.265-1.186-0.249
				l-5.007,20.25l-35.085,2.894c-0.025,0.245,0.118,0.495,0.442,0.682l28.334-1.645l-3.9,15.384l4.987-15.447h0l4.839-0.281
				c0.609-0.035,1.165-0.281,1.597-0.667l0.003,0l0.001-0.004c0.403-0.362,0.698-0.846,0.817-1.404L214.212,359.474z"/>
			<path id="XMLID_712_" style="opacity:0.3;fill:#FFFFFF;" d="M184.734,365.588l26.714-2.203l0.956-3.828l0.528-2.131l3.527-14.292
				c-0.361,0.013-0.718,0.09-0.995,0.25l-19.33,11.16l-19.33,11.16c-0.277,0.16-0.42,0.366-0.442,0.575l5.358-0.442L184.734,365.588
				z"/>
			<path id="XMLID_703_" style="fill:#F28F8F;" d="M212.131,340.187c2.442-1.409,6.4-1.409,8.842,0c2.441,1.41,2.441,3.695,0,5.105
				c-2.441,1.41-6.4,1.41-8.842,0C209.69,343.882,209.69,341.596,212.131,340.187z"/>
			<g>
				<path style="fill:#FAFAFA;" d="M213.464,343.579c-0.078-0.006-0.139-0.027-0.184-0.063c-0.043-0.036-0.06-0.078-0.05-0.123
					l0.366-1.607c0.01-0.039,0.023-0.087,0.041-0.142c0.017-0.055,0.061-0.103,0.134-0.146l0.895-0.517
					c0.054-0.03,0.12-0.046,0.198-0.046c0.079,0,0.144,0.016,0.198,0.046l4.734,2.734c0.053,0.03,0.08,0.069,0.081,0.114
					c-0.001,0.045-0.027,0.083-0.081,0.114l-0.96,0.554c-0.054,0.032-0.12,0.047-0.198,0.047c-0.079,0-0.145-0.016-0.198-0.047
					l-3.203-1.849l-0.212,0.884c-0.01,0.046-0.046,0.081-0.106,0.108c-0.061,0.027-0.131,0.038-0.209,0.032L213.464,343.579z"/>
			</g>
		</g>
		<g id="Notification">
			<path style="fill:#27DEBF;" d="M257.033,350.554l-26.267-15.167c-0.598-0.345-0.598-0.905,0-1.25l95.32-55.035
				c0.598-0.345,1.567-0.345,2.165,0l26.271,15.167c0.598,0.345,0.598,0.905,0,1.25l-95.324,55.035
				C258.6,350.899,257.631,350.899,257.033,350.554z"/>
			<g>
				<path style="fill:#FAFAFA;" d="M251.984,333.417c-0.089,0.052-0.181,0.077-0.275,0.077c-0.093,0-0.164-0.001-0.211-0.004
					l-5.461-0.616l3.232,1.866c0.057,0.033,0.086,0.074,0.086,0.122c-0.001,0.049-0.029,0.09-0.086,0.122l-0.636,0.367
					c-0.058,0.033-0.129,0.05-0.212,0.051c-0.084-0.001-0.154-0.017-0.212-0.051l-5.069-2.927c-0.058-0.033-0.086-0.073-0.087-0.122
					c0.001-0.048,0.029-0.089,0.087-0.122l0.549-0.317c0.089-0.051,0.181-0.077,0.274-0.077c0.095,0,0.165,0.001,0.212,0.005
					l5.463,0.616l-3.234-1.867c-0.057-0.033-0.085-0.073-0.086-0.122c0.001-0.048,0.029-0.089,0.086-0.122l0.637-0.367
					c0.057-0.033,0.128-0.05,0.211-0.05c0.085,0,0.154,0.017,0.213,0.05l5.068,2.927c0.059,0.033,0.087,0.074,0.087,0.122
					c-0.001,0.049-0.028,0.089-0.087,0.122L251.984,333.417z"/>
				<path style="fill:#FAFAFA;" d="M251.654,331.252c-0.293-0.17-0.524-0.354-0.694-0.555c-0.17-0.201-0.268-0.405-0.29-0.612
					c-0.023-0.207,0.028-0.411,0.157-0.611c0.128-0.201,0.338-0.386,0.631-0.556c0.293-0.169,0.612-0.291,0.957-0.367
					c0.346-0.075,0.692-0.109,1.041-0.102c0.347,0.008,0.689,0.056,1.022,0.143c0.336,0.088,0.637,0.209,0.903,0.363l0.354,0.203
					c0.058,0.033,0.086,0.074,0.087,0.123c-0.001,0.048-0.029,0.089-0.087,0.122l-2.621,1.513c0.12,0.069,0.251,0.117,0.393,0.141
					c0.141,0.025,0.285,0.03,0.433,0.019c0.145-0.013,0.289-0.041,0.431-0.086c0.141-0.046,0.269-0.102,0.384-0.168
					c0.168-0.097,0.287-0.185,0.357-0.265c0.07-0.08,0.114-0.155,0.129-0.225c0.016-0.058,0.035-0.102,0.056-0.131
					c0.021-0.031,0.063-0.064,0.126-0.101l0.628-0.362c0.058-0.033,0.129-0.051,0.215-0.052c0.087-0.001,0.156,0.016,0.208,0.052
					c0.068,0.045,0.123,0.123,0.161,0.233c0.039,0.11,0.038,0.241-0.003,0.393c-0.043,0.15-0.135,0.313-0.279,0.486
					s-0.362,0.346-0.655,0.515c-0.293,0.169-0.61,0.293-0.949,0.371c-0.341,0.078-0.689,0.112-1.044,0.1
					c-0.357-0.012-0.708-0.066-1.056-0.165C252.298,331.573,251.968,331.434,251.654,331.252z M252.4,329.462
					c-0.151,0.088-0.26,0.176-0.322,0.263c-0.063,0.088-0.096,0.173-0.098,0.256c-0.003,0.083,0.02,0.161,0.067,0.233
					c0.046,0.073,0.104,0.135,0.171,0.185l1.773-1.023c-0.088-0.039-0.19-0.075-0.305-0.108c-0.115-0.033-0.241-0.052-0.377-0.055
					c-0.137-0.003-0.28,0.014-0.432,0.05C252.726,329.299,252.568,329.365,252.4,329.462z"/>
				<path style="fill:#FAFAFA;" d="M260.622,326.527l-1.536-1.703c-0.027-0.034-0.046-0.07-0.06-0.111
					c-0.014-0.041,0.017-0.083,0.09-0.125l0.596-0.344c0.058-0.033,0.129-0.05,0.213-0.05c0.084,0,0.154,0.017,0.212,0.05
					c0.021,0.012,0.037,0.023,0.046,0.036l2.434,2.772c0.032,0.036,0.053,0.075,0.064,0.118c0.009,0.042-0.022,0.084-0.095,0.127
					l-0.597,0.344c-0.073,0.043-0.146,0.06-0.216,0.053c-0.07-0.008-0.139-0.02-0.208-0.034l-2.855-0.771l1.333,1.649
					c0.027,0.039,0.046,0.079,0.06,0.12c0.013,0.04-0.018,0.082-0.091,0.124l-0.596,0.345c-0.074,0.042-0.147,0.061-0.22,0.055
					c-0.073-0.007-0.141-0.018-0.204-0.037l-4.804-1.404c-0.02-0.006-0.041-0.015-0.061-0.026c-0.058-0.033-0.087-0.074-0.086-0.123
					c-0.001-0.048,0.027-0.089,0.085-0.122l0.597-0.345c0.073-0.042,0.145-0.06,0.216-0.052c0.071,0.008,0.135,0.018,0.193,0.034
					l2.949,0.888l-1.49-1.73c-0.032-0.03-0.048-0.068-0.051-0.116c-0.003-0.046,0.023-0.086,0.081-0.12l0.597-0.344
					c0.058-0.033,0.128-0.049,0.209-0.048c0.081,0.002,0.146,0.012,0.2,0.03L260.622,326.527z"/>
				<path style="fill:#FAFAFA;" d="M264.169,324.026c-0.291-0.169-0.523-0.354-0.693-0.555c-0.17-0.201-0.268-0.405-0.29-0.612
					c-0.023-0.206,0.028-0.41,0.157-0.611c0.127-0.201,0.338-0.386,0.631-0.556c0.293-0.169,0.612-0.291,0.957-0.367
					c0.346-0.075,0.692-0.109,1.041-0.102c0.347,0.008,0.689,0.056,1.023,0.142c0.335,0.088,0.636,0.209,0.902,0.363l0.354,0.204
					c0.058,0.033,0.086,0.073,0.087,0.122c-0.001,0.048-0.029,0.089-0.087,0.122l-2.621,1.513c0.12,0.07,0.252,0.117,0.393,0.141
					c0.141,0.024,0.285,0.03,0.432,0.018c0.147-0.012,0.29-0.041,0.432-0.086c0.141-0.046,0.27-0.102,0.384-0.168
					c0.168-0.097,0.287-0.185,0.357-0.265c0.07-0.08,0.114-0.155,0.129-0.225c0.016-0.058,0.034-0.102,0.056-0.131
					c0.022-0.031,0.063-0.064,0.125-0.1l0.629-0.363c0.057-0.033,0.129-0.05,0.215-0.052c0.086-0.001,0.156,0.017,0.209,0.052
					c0.067,0.046,0.121,0.124,0.16,0.234c0.039,0.109,0.037,0.24-0.004,0.392c-0.042,0.15-0.135,0.313-0.278,0.487
					c-0.145,0.173-0.362,0.345-0.655,0.514c-0.293,0.169-0.609,0.293-0.949,0.371c-0.341,0.079-0.689,0.112-1.044,0.1
					c-0.357-0.012-0.708-0.066-1.056-0.165C264.815,324.346,264.486,324.207,264.169,324.026z M264.916,322.237
					c-0.151,0.087-0.26,0.175-0.321,0.263c-0.063,0.087-0.097,0.172-0.099,0.256c-0.003,0.083,0.02,0.16,0.067,0.232
					c0.046,0.073,0.104,0.135,0.171,0.187l1.773-1.024c-0.087-0.039-0.19-0.075-0.305-0.108c-0.116-0.033-0.241-0.052-0.376-0.055
					c-0.138-0.003-0.281,0.014-0.433,0.05C265.243,322.073,265.084,322.139,264.916,322.237z"/>
				<path style="fill:#FAFAFA;" d="M268.251,319.767c-0.026-0.16,0.01-0.315,0.106-0.465c0.097-0.15,0.241-0.28,0.435-0.392
					c0.33-0.19,0.66-0.311,0.993-0.36c0.332-0.05,0.658-0.052,0.976-0.007c-0.036-0.1-0.047-0.202-0.031-0.308
					c0.016-0.107,0.052-0.208,0.106-0.307c0.055-0.098,0.128-0.189,0.219-0.276c0.092-0.086,0.195-0.162,0.311-0.228
					c0.298-0.172,0.596-0.287,0.895-0.344c0.299-0.058,0.592-0.073,0.883-0.048c0.291,0.025,0.572,0.088,0.844,0.188
					c0.271,0.1,0.531,0.22,0.776,0.361l2.111,1.219c0.058,0.034,0.087,0.074,0.087,0.123c-0.001,0.048-0.029,0.089-0.087,0.122
					l-0.597,0.345c-0.058,0.033-0.129,0.05-0.211,0.05c-0.084,0-0.154-0.017-0.213-0.05l-2.07-1.196
					c-0.357-0.206-0.673-0.309-0.951-0.313c-0.277-0.003-0.539,0.066-0.784,0.208c-0.21,0.121-0.32,0.264-0.333,0.429
					c-0.013,0.164,0.145,0.348,0.474,0.55l2.111,1.219c0.058,0.034,0.087,0.074,0.087,0.123c-0.001,0.048-0.029,0.089-0.087,0.122
					l-0.597,0.345c-0.057,0.033-0.128,0.049-0.211,0.05c-0.084-0.001-0.154-0.017-0.212-0.051l-2.071-1.195
					c-0.356-0.206-0.673-0.31-0.95-0.314c-0.278-0.003-0.539,0.067-0.785,0.209c-0.214,0.124-0.325,0.272-0.333,0.441
					c-0.008,0.171,0.162,0.357,0.514,0.56l2.072,1.196c0.057,0.033,0.086,0.074,0.086,0.123c0,0.048-0.029,0.089-0.086,0.122
					l-0.597,0.344c-0.058,0.033-0.129,0.05-0.212,0.05c-0.084,0-0.154-0.016-0.212-0.05l-3.656-2.11
					c-0.058-0.033-0.087-0.074-0.087-0.123c0-0.048,0.028-0.089,0.086-0.122l0.596-0.345c0.059-0.033,0.129-0.05,0.213-0.05
					c0.084,0,0.154,0.017,0.213,0.05L268.251,319.767z"/>
				<path style="fill:#FAFAFA;" d="M275.055,316.545c-0.089-0.075-0.158-0.171-0.208-0.287c-0.05-0.116-0.061-0.247-0.031-0.39
					c0.029-0.144,0.108-0.294,0.238-0.451c0.131-0.157,0.33-0.313,0.598-0.467c0.267-0.154,0.542-0.273,0.826-0.355
					c0.286-0.083,0.574-0.13,0.864-0.141c0.29-0.011,0.58,0.019,0.872,0.091c0.289,0.071,0.568,0.184,0.834,0.337l2.309,1.332
					c0.057,0.034,0.086,0.074,0.086,0.123c-0.001,0.048-0.029,0.089-0.086,0.122l-0.597,0.345c-0.058,0.033-0.129,0.05-0.212,0.05
					c-0.084,0-0.154-0.017-0.212-0.051l-0.259-0.149c0.042,0.151,0.013,0.317-0.086,0.499c-0.101,0.181-0.309,0.364-0.628,0.548
					c-0.226,0.13-0.458,0.229-0.695,0.297c-0.238,0.068-0.473,0.104-0.702,0.111c-0.229,0.006-0.452-0.015-0.667-0.064
					c-0.215-0.049-0.411-0.124-0.589-0.227c-0.361-0.209-0.515-0.445-0.463-0.712c0.053-0.266,0.257-0.543,0.612-0.833l1.06-0.865
					c-0.215-0.124-0.438-0.171-0.667-0.141c-0.23,0.03-0.45,0.105-0.659,0.227c-0.131,0.075-0.215,0.145-0.251,0.209
					c-0.037,0.063-0.058,0.133-0.064,0.208c-0.004,0.052-0.02,0.093-0.043,0.124c-0.023,0.032-0.059,0.061-0.105,0.089l-0.73,0.421
					c-0.052,0.03-0.112,0.047-0.18,0.05C275.151,316.598,275.097,316.582,275.055,316.545z M278.578,317.067
					c0.178-0.103,0.312-0.209,0.4-0.317c0.089-0.108,0.139-0.214,0.148-0.317c0.012-0.102-0.013-0.197-0.069-0.285
					c-0.059-0.088-0.142-0.163-0.252-0.227l-0.078-0.046l-0.879,0.726c-0.179,0.145-0.279,0.266-0.303,0.36
					c-0.023,0.095,0.025,0.178,0.146,0.247c0.109,0.063,0.247,0.077,0.412,0.043C278.268,317.215,278.426,317.154,278.578,317.067z"
					/>
				<path style="fill:#FAFAFA;" d="M277.888,312.029c0.058-0.033,0.128-0.05,0.212-0.05c0.083,0,0.154,0.017,0.212,0.05l0.611,0.353
					c0.058,0.033,0.086,0.074,0.087,0.123c0,0.048-0.028,0.089-0.086,0.122l-0.675,0.39c-0.058,0.033-0.129,0.05-0.213,0.05
					c-0.084,0-0.154-0.017-0.212-0.05l-0.611-0.354c-0.058-0.033-0.087-0.073-0.087-0.122c0-0.048,0.029-0.089,0.087-0.122
					L277.888,312.029z M283.42,315.023c0.058,0.034,0.086,0.074,0.087,0.123c-0.002,0.048-0.029,0.089-0.087,0.122l-0.597,0.344
					c-0.058,0.033-0.129,0.05-0.211,0.051c-0.084-0.001-0.155-0.017-0.213-0.051l-3.656-2.11c-0.058-0.033-0.086-0.074-0.086-0.123
					c-0.001-0.048,0.027-0.089,0.085-0.122l0.597-0.345c0.058-0.033,0.129-0.05,0.213-0.05c0.083,0,0.154,0.018,0.212,0.051
					L283.42,315.023z"/>
				<path style="fill:#FAFAFA;" d="M285.523,313.809c0.058,0.033,0.087,0.074,0.087,0.123c-0.001,0.048-0.029,0.089-0.087,0.122
					l-0.596,0.344c-0.059,0.033-0.129,0.05-0.212,0.05c-0.084,0-0.155-0.016-0.212-0.05l-5.148-2.972
					c-0.057-0.033-0.086-0.074-0.086-0.123c0-0.048,0.029-0.089,0.086-0.122l0.597-0.344c0.058-0.033,0.128-0.05,0.212-0.05
					c0.084,0,0.154,0.017,0.212,0.05L285.523,313.809z"/>
			</g>
			<path style="fill:#FAFAFA;" d="M254.394,337.644l77.772-44.901c0.957-0.552,2.357-0.639,3.128-0.194
				c0.771,0.445,0.62,1.254-0.336,1.806l-77.781,44.907c-0.957,0.552-2.355,0.638-3.124,0.191
				C253.285,339.006,253.437,338.196,254.394,337.644z"/>
			<path style="fill:#FAFAFA;" d="M259.854,340.797l77.772-44.901c0.957-0.552,2.357-0.639,3.128-0.194
				c0.771,0.445,0.62,1.254-0.336,1.806l-77.781,44.907c-0.957,0.552-2.355,0.638-3.124,0.191
				C258.745,342.159,258.897,341.349,259.854,340.797z"/>
		</g>
	</g>
</g>
<g id="Character">
	<g id="Character_Envelope">
		<polygon id="Shadow_5_" style="fill:#E0E0E0;" points="144.378,369.941 103.758,346.489 285.72,241.432 327.17,264.406 		"/>
		<g id="Back">
			<path id="XMLID_489_" style="fill:#27DEBF;" d="M133.391,223.729l173.057-99.915l6.925,3.998c1.79,1.034,3.255,3.571,3.255,5.639
				v127.661c0,2.067-1.465,4.605-3.255,5.638l-166.546,96.156c-1.79,1.034-4.721,1.034-6.511,0l-3.669-2.118
				c-1.79-1.034-3.255-3.571-3.255-5.639L133.391,223.729z"/>
			<path id="XMLID_471_" style="opacity:0.2;" d="M133.391,223.729l173.057-99.915l6.925,3.998c1.79,1.034,3.255,3.571,3.255,5.639
				v127.661c0,2.067-1.465,4.605-3.255,5.638l-166.546,96.156c-1.79,1.034-4.721,1.034-6.511,0l-3.669-2.118
				c-1.79-1.034-3.255-3.571-3.255-5.639L133.391,223.729z"/>
			<path id="XMLID_470_" style="fill:#27DEBF;" d="M305.494,112.591l0.708-0.385l-2.689-1.562v0.002
				c-0.231-0.135-0.469-0.251-0.714-0.341l-76.163-28.222c-2.016-0.747-4.634,0.086-5.849,1.859L135.59,208.36
				c-1.214,1.774-2.199,4.954-2.199,7.103c0,3.556,0,8.263,0,8.263l2.641,1.534l170.417-101.447v-8.264
				C306.449,114.543,306.081,113.499,305.494,112.591z"/>
			<path id="XMLID_469_" style="opacity:0.1;" d="M224.315,84.545c-0.337,0.259-0.636,0.584-0.882,0.934l-85.204,124.414
				c-0.623,0.921-1.194,2.219-1.583,3.555l-2.647-1.531c0.195-0.649,0.428-1.285,0.688-1.881c0.013-0.026,0.013-0.039,0.026-0.052
				c0.117-0.259,0.234-0.506,0.363-0.753c0.026-0.039,0.039-0.078,0.065-0.117c0.143-0.273,0.298-0.532,0.454-0.753l85.191-124.414
				c0.13-0.195,0.272-0.35,0.428-0.519c0.143-0.143,0.298-0.285,0.454-0.415L224.315,84.545z"/>
			<path id="XMLID_465_" style="opacity:0.35;fill:#FFFFFF;" d="M306.172,112.194c-0.234-0.143-0.48-0.259-0.727-0.35
				l-76.174-28.233c-1.609-0.597-3.607-0.182-4.956,0.934l-2.647-1.531c1.362-1.103,3.348-1.531,4.969-0.934l76.161,28.22
				c0.247,0.091,0.48,0.208,0.714,0.35L306.172,112.194z"/>
			<g id="XMLID_408_">
				<path id="XMLID_464_" style="fill:#27DEBF;" d="M135.135,209.109c0.147-0.269,0.298-0.521,0.454-0.749
					C135.434,208.588,135.282,208.84,135.135,209.109z"/>
				<path id="XMLID_1103_" style="fill:#27DEBF;" d="M221.215,83.429c0.143-0.146,0.296-0.284,0.456-0.415
					C221.511,83.144,221.356,83.279,221.215,83.429z"/>
				<path id="XMLID_463_" style="fill:#27DEBF;" d="M133.994,211.92c0.195-0.652,0.43-1.293,0.692-1.888
					C134.423,210.627,134.189,211.267,133.994,211.92z"/>
				<path id="XMLID_449_" style="fill:#27DEBF;" d="M134.708,209.979c0.116-0.261,0.24-0.507,0.365-0.745
					C134.948,209.472,134.825,209.718,134.708,209.979z"/>
				<path id="XMLID_432_" style="opacity:0.2;" d="M134.686,210.032c0.008-0.018,0.014-0.036,0.022-0.054
					C134.7,209.996,134.694,210.015,134.686,210.032z"/>
				<polygon id="XMLID_1097_" style="opacity:0.2;" points="133.994,211.92 133.994,211.92 133.994,211.92 				"/>
				<polygon id="XMLID_431_" style="opacity:0.2;" points="221.672,83.014 221.672,83.014 221.672,83.014 				"/>
				<path id="XMLID_417_" style="opacity:0.2;" d="M135.074,209.234c0.021-0.04,0.04-0.085,0.062-0.124
					C135.114,209.149,135.095,209.194,135.074,209.234z"/>
				<path id="XMLID_409_" style="opacity:0.2;" d="M220.787,83.942c0.126-0.184,0.275-0.35,0.428-0.513
					C221.059,83.588,220.913,83.758,220.787,83.942z"/>
			</g>
			<path id="XMLID_402_" style="fill:#27DEBF;" d="M223.428,85.475L138.23,209.894c-1.214,1.774-2.199,4.954-2.199,7.103
				c0,3.556,0,8.263,0,8.263l173.059-99.921l-0.002-8.256c0-2.15-1.634-4.498-3.65-5.245l-76.163-28.222
				C227.261,82.869,224.642,83.702,223.428,85.475z"/>
			<path id="XMLID_1091_" style="opacity:0.05;" d="M309.089,117.083c0-0.988-0.356-2.012-0.925-2.909l-171.519,99.273
				c0,0-0.009,0.015-0.017,0.027c-0.367,1.232-0.597,2.495-0.597,3.523c0,3.556,0,8.263,0,8.263l173.059-99.921L309.089,117.083z"/>
		</g>
		<g id="Paper">
			<path style="fill:#27DEBF;" d="M301.698,82.014c0-0.889-0.31-1.516-0.812-1.812c-0.509-0.3-4.773-2.756-5.282-3.049
				c-0.508-0.293-1.21-0.251-1.986,0.197L151.67,159.3c-1.551,0.896-2.809,3.074-2.809,4.865l0.001,169.997
				c0,0.895,0.314,1.524,0.822,1.818c0.508,0.294,4.763,2.75,5.272,3.043c0.508,0.293,1.211,0.251,1.986-0.197l141.948-81.951
				c1.552-0.896,2.809-3.074,2.809-4.865L301.698,82.014z"/>
			<path style="opacity:0.95;fill:#FFFFFF;" d="M301.698,82.014c0-0.889-0.31-1.516-0.812-1.812c-0.509-0.3-4.773-2.756-5.282-3.049
				c-0.508-0.293-1.21-0.251-1.986,0.197L151.67,159.3c-1.551,0.896-2.809,3.074-2.809,4.865l0.001,169.997
				c0,0.895,0.314,1.524,0.822,1.818c0.508,0.294,4.763,2.75,5.272,3.043c0.508,0.293,1.211,0.251,1.986-0.197l141.948-81.951
				c1.552-0.896,2.809-3.074,2.809-4.865L301.698,82.014z"/>
			<path style="fill:#27DEBF;" d="M156.941,338.827l141.948-81.951c1.552-0.896,2.809-3.074,2.809-4.865l-0.001-169.997
				c0-1.791-1.258-2.518-2.809-1.622l-141.948,81.95c-1.551,0.896-2.809,3.074-2.809,4.865l0.001,169.997
				C154.132,338.997,155.39,339.723,156.941,338.827z"/>
			<path style="opacity:0.8;fill:#FFFFFF;" d="M156.941,338.827l141.948-81.951c1.552-0.896,2.809-3.074,2.809-4.865l-0.001-169.997
				c0-1.791-1.258-2.518-2.809-1.622l-141.948,81.95c-1.551,0.896-2.809,3.074-2.809,4.865l0.001,169.997
				C154.132,338.997,155.39,339.723,156.941,338.827z"/>
			<path style="fill:#27DEBF;" d="M154.127,337.204c0,0.792,0.247,1.375,0.662,1.713c-0.947-0.532-4.632-2.673-5.099-2.932
				c-0.519-0.298-0.83-0.921-0.83-1.816V164.162c0-0.895,0.311-1.881,0.83-2.764l5.268,3.036c-0.519,0.882-0.83,1.881-0.83,2.777
				V337.204z"/>
			<path style="opacity:0.7;fill:#FFFFFF;" d="M154.127,337.204c0,0.792,0.247,1.375,0.662,1.713
				c-0.947-0.532-4.632-2.673-5.099-2.932c-0.519-0.298-0.83-0.921-0.83-1.816V164.162c0-0.895,0.311-1.881,0.83-2.764l5.268,3.036
				c-0.519,0.882-0.83,1.881-0.83,2.777V337.204z"/>
			<path style="opacity:0.05;" d="M154.127,337.204c0,0.792,0.247,1.375,0.662,1.713c-0.947-0.532-4.632-2.673-5.099-2.932
				c-0.519-0.298-0.83-0.921-0.83-1.816V164.162c0-0.895,0.311-1.881,0.83-2.764l5.268,3.036c-0.519,0.882-0.83,1.881-0.83,2.777
				V337.204z"/>
		</g>
		<g id="Character_12_">
			<path style="fill:#37474F;" d="M205.933,208.724c-0.625,15.814,0.439,49.704,0.439,49.704s16.763,5.067,28.16,3.177
				c11.397-1.889,35.768-19.152,35.768-19.152l-4.062-36.677L205.933,208.724z"/>
			<path style="fill:#263238;" d="M244.852,257.852l2.723-25.832c10.684-6.37,14.161-15.189,14.161-15.189
				c-9.724,12.732-19.868,10.671-19.868,10.671v31.717C242.839,258.8,243.837,258.343,244.852,257.852z"/>
			<path id="XMLID_880_" style="fill:#455A64;" d="M272.932,161.075c2.715-13.764,3.946-32.055-8.029-35.412
				c-3.119-0.874-11.06-0.267-11.06-0.267l-12.911,0.641c-7.189,0.917-17.274,2.346-19.915,2.996
				c-6.936,1.706-8.995,13.035-12.104,38.141c-1.947,15.72-3.603,27.992-3.603,43.292c12.684,11.372,52.328,6.894,61.35-0.503
				C267.033,192.622,267.978,186.189,272.932,161.075z"/>
			<g>
				<path style="fill:#37474F;" d="M238.743,121.348c-0.124,2.514,2.769,6.756,7.195,9.734c4.426,2.978,8.24,4.184,8.725,5.427
					c-2.101,0.394-3.999,1.435-5.562,5.041c-1.493,3.444-1.479,3.555-6.588,0c-5.109-3.555-9.679-11.712-9.668-14.429
					c0.011-2.717,4.016-7.974,5.982-7.528L238.743,121.348z"/>
				<path style="fill:#37474F;" d="M254.663,136.509c1.496-1.634,2.914-5.744,3.096-7.52c0.182-1.776,0.654-6.444,0.654-6.444
					s1.216,0.314,1.768,1.148c0.552,0.834,3.27,6.453,3.182,9.591c-0.088,3.138-0.824,7.381-1.884,9.171
					c-1.061,1.789-1.772-1.368-2.464-2.591C258.114,138.275,256.879,136.552,254.663,136.509z"/>
				<path style="fill:#37474F;" d="M252.641,140.109c0,0,0.246,11.335-0.796,17.361c0,0,3.411,0.625,6.742-0.181
					c0,0-1.729,2.13-8.066,1.151C250.519,158.44,252.468,146.609,252.641,140.109z"/>
			</g>
			<g id="XMLID_796_">
				<g id="XMLID_809_">
					<path style="fill:#263238;" d="M279.473,87.774c-0.147-9.933-8.318-17.866-18.251-17.719
						c-9.292,0.137-16.831,7.299-17.645,16.354l-8.168-5.811c0,0-2.979-0.465-5.26,1.937c-2.236,2.356-0.861,9.604,2.072,16.68
						c0,0,2.95,12.919,4.088,15.032c1.138,2.113,3.432,2.684,3.432,2.684l-0.282-7.861l32.674-2.346l-3.233-2.3
						C275.223,101.56,279.582,95.158,279.473,87.774z"/>
					<path id="XMLID_838_" style="fill:#FFA8A7;" d="M238.984,99.716c-1.033,0.638-1.975-1.547-3.854-2.668
						c-1.597-0.953-5.186-2.624-7.554,1.34c-2.55,4.27,2.078,10.174,5.319,11.39c4.799,1.802,6.518-1.961,6.518-1.961l-0.991,20.002
						c6.535,11.904,25.931,11.137,19.336,1.169l0.792-7.713c0,0,5.168,0.706,7.678,0.28c4.176-0.709,6.76-4.05,7.963-8.599
						c1.932-7.307,2.619-13.193,0.677-27.479c-2.128-15.657-20.374-15.551-30.134-9.205
						C234.973,82.62,238.984,99.716,238.984,99.716z"/>
					<path style="fill:#263238;" d="M278.853,70.86c-1.326-0.723-2.929-0.779-4.415-0.507c0.334-2.252-1.192-4.46-3.197-5.37
						c-2.428-1.103-4.622-0.713-6.76,0.903c0.442-1.59-1.004-3.21-2.617-3.562c-1.613-0.352-3.273,0.202-4.814,0.792
						c-2.294,0.877-4.553,1.852-6.883,2.631c-4.106,1.372-8.476,2.155-12.19,4.38c-0.877,0.525-1.723,1.142-2.321,1.971
						c-0.836,1.159-1.115,2.647-1.05,4.075c0.022,0.476,0.101,0.941,0.198,1.401c-0.276-0.3-0.596-0.565-0.974-0.761
						c-1.754-0.908-3.878-0.17-4.745,1.648l6.186,3.204c-0.154,1.246-0.308,2.492-0.434,3.741
						c-0.333,3.299-0.973,7.143-0.228,10.424c0.084,0.371,0.146,0.803,0.403,1.101c0,0,1.6,1.16,3.218,3.13
						c0.479,0.583,1.057,1.524,1.832,1.753c0.772,0.228,1.865-0.205,2.138-0.975c0.164-0.462,0.118-0.969,0.07-1.457
						c-0.2-2.033-0.4-4.065-0.6-6.098c-0.053-0.543-0.104-1.11,0.099-1.616c0.272-0.681,0.934-1.107,1.491-1.583
						c1.421-1.214,2.318-3.02,2.428-4.885c0.035-0.586-0.004-1.186,0.164-1.749c0.128-0.43,0.467-1.101,0.958-1.102
						c0.954-0.004,6.133,1.124,7.434,1.302c6.777,0.929,14.057,1.109,20.035-2.216c2.328-1.295,6.251-3.98,6.658-6.859
						C281.148,73.078,280.179,71.583,278.853,70.86z"/>
					<path id="XMLID_810_" style="fill:#F28F8F;" d="M258.551,121.275c0,0-9.37-1.744-12.662-3.432
						c-2.203-1.13-4.034-3.117-4.581-4.4c0,0,0.653,2.763,2.643,5.231c2.434,3.018,14.345,5.087,14.345,5.087L258.551,121.275z"/>
				</g>
				<g id="XMLID_797_">
					<path id="XMLID_808_" style="fill:#263238;" d="M258.151,98.034c0.015,1.007-0.759,1.833-1.728,1.844
						c-0.969,0.012-1.767-0.795-1.781-1.802c-0.015-1.007,0.758-1.832,1.727-1.844C257.338,96.221,258.136,97.028,258.151,98.034z"
						/>
					<path id="XMLID_806_" style="fill:#263238;" d="M254.738,91.491l-4.115,2c-0.53-1.18-0.038-2.584,1.098-3.136
						C252.857,89.802,254.208,90.311,254.738,91.491z"/>
					<path id="XMLID_804_" style="fill:#B16668;" d="M254.786,108.996l7.436,2.666c-0.7,2.13-2.933,3.261-4.987,2.525
						C255.181,113.451,254.085,111.127,254.786,108.996z"/>
					<path style="fill:#F28F8F;" d="M259.482,114.282c-0.295-2.106-2.229-3.586-4.342-3.31c-0.165,0.022-0.32,0.071-0.477,0.112
						c0.259,1.39,1.191,2.609,2.572,3.104C257.988,114.457,258.765,114.471,259.482,114.282z"/>
					<path id="XMLID_803_" style="fill:#263238;" d="M274.244,92.85l-3.973-2.074c0.539-1.09,1.865-1.509,2.962-0.937
						C274.33,90.412,274.783,91.76,274.244,92.85z"/>
					<path id="XMLID_799_" style="fill:#263238;" d="M272.223,97.737c0.015,1.007-0.759,1.832-1.728,1.844
						c-0.969,0.012-1.767-0.795-1.781-1.802c-0.015-1.007,0.759-1.832,1.727-1.844C271.41,95.923,272.208,96.73,272.223,97.737z"/>
					<polygon id="XMLID_798_" style="fill:#F28F8F;" points="263.271,96.646 263.621,107.997 270.315,106.44 					"/>
				</g>
			</g>
		</g>
		<g id="Front">
			<path id="XMLID_1018_" style="fill:#27DEBF;" d="M312.238,262.812c-0.052,0.091-0.103,0.169-0.181,0.259l-72.116-22.867
				c-5.664-2.515-12.295-0.467-15.584,4.797l-77.096,114.587l-2.851,1.647l-0.026,0.013c-0.864,0.48-1.638,0.545-2.206,0.246
				l79.289-118.114c3.29-5.264,9.934-7.313,15.597-4.81L312.238,262.812z"/>
			<path id="XMLID_1017_" style="opacity:0.4;fill:#FFFFFF;" d="M217.256,256.249l0.182-0.156l-70.18,103.5l-2.854,1.648
				l-0.026,0.013c-0.856,0.48-1.635,0.532-2.206,0.247l72.308-106.913L217.256,256.249z"/>
			<path id="XMLID_330_" style="opacity:0.4;fill:#FFFFFF;" d="M312.244,262.816c-0.052,0.091-0.104,0.169-0.182,0.259
				L239.936,240.2c-5.657-2.517-12.287-0.467-15.583,4.801l-2.854-1.661c3.296-5.242,9.913-7.266,15.57-4.775L312.244,262.816z"/>
			<path id="XMLID_1011_" style="fill:#27DEBF;" d="M316.569,132.634h-0.013c-0.156-0.934-0.649-1.193-1.284-0.753
				c-0.247,0.169-0.532,0.454-0.83,0.857l-0.363,0.506l-71.166,108.194l-10.626,14.804c-1.194,1.687-3.815,2.66-5.852,2.193
				l-9.173-2.18l-70.024-25.779c-0.506-0.117-0.986-0.13-1.427-0.052c-0.182,0.039-0.363,0.091-0.532,0.169l2.639-1.526
				l67.135,24.604l8.839,3.155c2.024,0.48,4.645-0.493,5.852-2.193l10.626-14.791l71.516-108.7c0.234-0.324,0.519-0.558,0.805-0.74
				l-6.189-3.568l2.595-1.492l4.282,2.465C314.934,128.716,316.244,130.753,316.569,132.634z"/>
			<path id="XMLID_1010_" style="opacity:0.4;fill:#FFFFFF;" d="M242.907,241.432l-10.626,14.804
				c-1.194,1.687-3.815,2.66-5.852,2.193l-9.173-2.18l0.182-0.156l0.441-0.701l6.007,1.427c2.024,0.48,4.645-0.493,5.852-2.193
				l10.522-14.635L242.907,241.432z"/>
			<path id="XMLID_1009_" style="opacity:0.1;" d="M313.372,127.802l-4.282-2.465l-2.595,1.492l6.189,3.568
				c0.005,0.004,0.01,0.008,0.015,0.012l-0.011-0.006c-0.311,0.196-0.585,0.436-0.805,0.74l-71.521,108.694l-0.104,0.143v0.013
				l2.647,1.44l71.166-108.194l0.363-0.506c0.298-0.402,0.584-0.688,0.83-0.856c0.636-0.441,1.129-0.182,1.284,0.752h0.013
				C316.24,130.747,314.929,128.71,313.372,127.802z"/>
			<path id="XMLID_1008_" style="fill:#27DEBF;" d="M148.659,232.547l-15.268-8.818l0.001,131.42c0,2.068,1.465,4.605,3.255,5.639
				l3.669,2.118c1.791,1.034,4.721,1.034,6.511,0l1.832-1.058V232.547z"/>
			<path id="XMLID_329_" style="opacity:0.15;" d="M148.659,232.547l-15.268-8.818l0.001,131.42c0,2.068,1.465,4.605,3.255,5.639
				l3.669,2.118c1.791,1.034,4.721,1.034,6.511,0l1.832-1.058V232.547z"/>
			<path id="XMLID_324_" style="fill:#27DEBF;" d="M316.634,133.452v127.658c0,1.077-0.389,2.257-1.012,3.295
				c-0.519,0.856-1.168,1.622-1.907,2.141l-0.13,0.065c-0.078,0.052-0.13,0.104-0.208,0.143l-166.542,96.142l-0.026,0.013
				c-0.869,0.493-1.648,0.558-2.219,0.26c-0.506-0.26-0.856-0.791-0.973-1.557c-0.026-0.182-0.039-0.376-0.039-0.584v-127.67
				c0-2.063,1.622-3.36,3.659-2.88l70.024,25.779l9.173,2.18c2.037,0.467,4.658-0.506,5.852-2.193l10.626-14.804l71.166-108.194
				l0.363-0.506C315.647,131.064,316.634,131.376,316.634,133.452z"/>
			<path id="XMLID_1004_" style="fill:#27DEBF;" d="M313.375,266.754c0.075-0.038,0.138-0.088,0.214-0.138l0.125-0.075
				c0.739-0.514,1.391-1.278,1.905-2.13c0.616-1.023,0.998-2.19,1.01-3.241l-73.712-19.73l49.362,37.494L313.375,266.754z"/>
			<path id="XMLID_318_" style="opacity:0.2;" d="M313.375,266.754c0.075-0.038,0.138-0.088,0.214-0.138l0.125-0.075
				c0.739-0.514,1.391-1.278,1.905-2.13c0.616-1.023,0.998-2.19,1.01-3.241l-73.712-19.73l49.362,37.494L313.375,266.754z"/>
			<path id="XMLID_317_" style="fill:#27DEBF;" d="M143.575,361.021c0,1.078,0.389,1.817,1.015,2.143
				c0.576,0.301,1.354,0.238,2.218-0.251l0.025-0.012l57.339-33.103l13.095-73.547L143.578,358.9L143.575,361.021z"/>
			<path id="XMLID_279_" style="opacity:0.15;" d="M224.327,244.987l-79.742,118.174c-0.623-0.324-1.012-1.064-1.012-2.141
				l0.005-2.121l77.895-115.521c0-0.013,0.013-0.026,0.026-0.039L224.327,244.987z"/>
			<path id="XMLID_992_" style="fill:#27DEBF;" d="M315.618,264.411c-0.513,0.852-1.165,1.616-1.905,2.13l-0.125,0.075
				l-166.756,96.284l-0.025,0.012c-0.865,0.489-1.642,0.551-2.218,0.251l79.75-118.196c3.305-5.277,9.984-7.326,15.68-4.811
				L315.618,264.411z"/>
			<path id="XMLID_966_" style="opacity:0.15;" d="M133.998,211.917l2.647,1.531c-0.376,1.245-0.61,2.517-0.61,3.555
				c0,3.555,0,8.252,0,8.252l-2.647-1.531c0,0,0-4.71,0-8.265C133.388,214.434,133.622,213.162,133.998,211.917z"/>
			<polygon id="XMLID_277_" style="fill:#27DEBF;" points="147.917,229.067 145.278,230.593 142.605,229.049 136.027,225.26 
				138.583,223.742 			"/>
			<path id="XMLID_276_" style="opacity:0.1;" d="M148.034,229.117l-9.451-5.374l-2.556,1.518l6.578,3.788l2.673,1.544l0.028-0.016
				c0.16-0.07,0.329-0.122,0.5-0.158c0.441-0.078,0.921-0.065,1.427,0.052l5.321,1.963l61.126,22.503l0.956-1.418L148.034,229.117z"
				/>
		</g>
		<g id="Arm">
			<path style="fill:#FFA8A7;" d="M221.016,129.033c-8.484,0.61-14.302,2.63-19.77,15.767c-3.535,8.493-17.392,39.012-18.734,44.056
				c-1.576,5.926-5.118,50.953-5.118,50.953l8.097,3.038c0,0-2.775,9.69-5.117,15.227c-2.7,6.383,10.487,5.045,14.722-0.759
				c4.248-5.821,7.122-13.568,4.808-16.292c-3.059-3.601-6.428-5.946-6.428-5.946l8.865-40.172l18.589-39.517
				C220.929,155.388,230.256,135.965,221.016,129.033z"/>
			<path style="fill:#F28F8F;" d="M193.476,235.077c-4.333-2.445-8.215-2.345-8.215-2.345s4.258-1.365,8.601-0.001L193.476,235.077z
				"/>
			<path style="fill:#37474F;" d="M222.942,128.643c-4.765-0.04-13.655-0.253-19.413,10.148
				c-5.758,10.401-13.902,30.166-13.902,30.166s3.386,8.327,21.504,10.066l13.88-29.532
				C225.01,149.49,228.39,135.939,222.942,128.643z"/>
		</g>
		<g id="Arm_1_">
			<g id="XMLID_812_">
				<path style="fill:#FFA8A7;" d="M284.418,135.463c7.157,5.642,18.783,14.518,24.433,18.071
					c4.271-5.169,12.128-15.623,14.035-17.913c2.425-2.911,10.08-7.666,10.08-7.666l2.891,11.596c0,0-14.515,26.774-19.774,31.73
					c-5.542,5.222-9.552,3.057-20.382-1.907c-10.231-4.69-21.339-10.504-21.339-10.504c2.201-19.461,0.709-30.002-8.589-33.284
					C272.024,126.363,278.412,130.729,284.418,135.463z"/>
				<path style="fill:#37474F;" d="M303.113,149.617c-3.742,1.028-11.475,12.032-10.063,18.993l-19.703-9.739
					c2.385-13.434,2.898-30.029-8.444-33.209c-0.84-0.24-2.03-0.36-3.32-0.42l0,0c5.65-0.56,9.338-0.395,15.257,4.055
					C282.761,133.747,303.113,149.617,303.113,149.617z"/>
				<path style="fill:#F28F8F;" d="M308.851,153.534c-2.823,2.474-3.736,6.938-4.283,8.704c0,0-0.588-5.158,2.651-9.766
					L308.851,153.534z"/>
				<g id="XMLID_813_">
					<g id="XMLID_1151_">
						<path id="XMLID_879_" style="fill:#37474F;" d="M336.284,114.981l6.752-4.097c0,0,0.777,36.444,0.802,37.629
							c0.025,1.185,1.417,2.341,1.417,2.341l-6.753,4.092c0,0-1.393-1.156-1.418-2.339
							C337.06,151.423,336.284,114.981,336.284,114.981z"/>
						<path id="XMLID_878_" style="fill:#FFA8A7;" d="M343.36,126.073c0,0,1.94,0.462,2.682,3.47
							c0.742,3.009,1.115,8.757-0.613,10.651c-1.728,1.894-4.089,2.72-5.658,2.039c-2.934-1.274-2.041-7.226,0.31-8.599
							c3.757-2.194,3.307-4.611,3.307-4.611L343.36,126.073z"/>
						<path id="XMLID_877_" style="fill:#455A64;" d="M327.971,115.091l2.96,3.609l0.532,25.701l-3.007,5.024l10.046,5.52
							c-0.878-0.76-1.332-1.541-1.418-2.339l-0.7-32.895L327.971,115.091z"/>
						<polygon id="XMLID_876_" style="fill:#27DEBF;" points="328.457,149.426 328.49,151.005 338.536,156.525 338.503,154.947 
													"/>
						<polygon id="XMLID_875_" style="fill:#27DEBF;" points="338.536,156.525 345.289,152.433 345.255,150.855 338.503,154.947 
													"/>
						<polygon id="XMLID_874_" style="opacity:0.1;" points="338.536,156.525 345.289,152.433 345.255,150.855 338.503,154.947 
													"/>
					</g>
					<g>
						<g id="XMLID_853_">
							<path id="XMLID_873_" style="fill:#27DEBF;" d="M329.936,97.256L329.936,97.256c-1.314-0.325-2.835,0.228-4.245,1.737
								l-0.051,0.055c-2.787,2.983-4.08,8.568-2.89,12.473l0.022,0.072c0.617,2.023,1.78,3.195,3.144,3.444l0,0.001l5.84,1.405
								l3.578-17.884L329.936,97.256z"/>
							<path id="XMLID_872_" style="opacity:0.7;fill:#FFFFFF;" d="M329.936,97.256L329.936,97.256
								c-1.314-0.325-2.835,0.228-4.245,1.737l-0.051,0.055c-2.787,2.983-4.08,8.568-2.89,12.473l0.022,0.072
								c0.617,2.023,1.78,3.195,3.144,3.444l0,0.001l5.84,1.405l3.578-17.884L329.936,97.256z"/>
							<path id="XMLID_871_" style="opacity:0.05;" d="M325.916,115.036L325.916,115.036l5.84,1.406l1.186-5.928l-10.626-2.462
								c-0.023,1.222,0.111,2.408,0.434,3.468l0.022,0.072C323.389,113.615,324.552,114.788,325.916,115.036z"/>
							<path id="XMLID_870_" style="fill:#27DEBF;" d="M341.774,97.757l-0.002,0.004c-1.476-0.339-3.158,0.206-4.756,1.696
								c-0.168,0.153-0.335,0.32-0.503,0.498c-0.196,0.211-0.384,0.427-0.567,0.658c-0.304,0.378-0.59,0.778-0.858,1.205
								c-0.493,0.773-0.926,1.616-1.295,2.507c-0.988,2.392-1.512,5.107-1.454,7.642c0.031,1.279,0.209,2.509,0.552,3.633
								c0.728,2.386,2.063,3.834,3.645,4.253l-5.559-1.283l0.003-0.012c-1.972-0.546-3.68-2.074-4.396-4.422
								c-0.327-1.073-0.505-2.247-0.545-3.463c-0.087-2.582,0.438-5.364,1.449-7.809c0.369-0.89,0.801-1.737,1.295-2.507
								c0.268-0.427,0.553-0.83,0.858-1.205c0.183-0.232,0.373-0.451,0.567-0.658c0.164-0.177,0.336-0.342,0.51-0.497
								c1.598-1.409,3.57-1.88,5.383-1.543l0.002-0.004l0.154,0.034c0.065,0.016,0.132,0.03,0.198,0.049L341.774,97.757z"/>
							<path id="XMLID_869_" style="opacity:0.1;" d="M330.977,118.57l0.003-0.012c-1.972-0.546-3.68-2.074-4.396-4.422
								c-0.327-1.073-0.505-2.247-0.545-3.463l6.301,1.293c0.031,1.279,0.209,2.509,0.552,3.633
								c0.728,2.386,2.063,3.834,3.645,4.253L330.977,118.57z"/>
							<path id="XMLID_868_" style="fill:#27DEBF;" d="M345.546,102.048c1.493,4.899-0.128,11.901-3.623,15.642
								c-1.756,1.883-3.655,2.582-5.297,2.185c-0.03-0.005-0.06-0.013-0.091-0.022c-1.582-0.419-2.917-1.867-3.645-4.253
								c-1.493-4.899,0.128-11.901,3.622-15.645c1.744-1.866,3.627-2.57,5.259-2.195C343.409,98.134,344.798,99.594,345.546,102.048
								z"/>
							<path id="XMLID_866_" style="opacity:0.2;" d="M345.546,102.048c1.493,4.899-0.128,11.901-3.623,15.642
								c-1.756,1.883-3.655,2.582-5.297,2.185c-0.03-0.005-0.06-0.013-0.091-0.022c-1.582-0.419-2.917-1.867-3.645-4.253
								c-1.493-4.899,0.128-11.901,3.622-15.645c1.744-1.866,3.627-2.57,5.259-2.195C343.409,98.134,344.798,99.594,345.546,102.048
								z"/>
							<path id="XMLID_863_" style="fill:#27DEBF;" d="M368.706,93.603c0,0-6.535,6.338-9.658,19.816
								c-0.613,2.647-0.987,5.108-1.191,7.348c-0.838,9.165,1.15,14.696,1.15,14.696c-4.034-4.951-8.689-9.932-14.846-12.955
								c-3.811-1.871-7.39-3.129-7.39-3.129l0.002-0.007c-1.492-0.349-2.719-1.722-3.39-3.924c-0.442-1.45-0.601-3.091-0.507-4.777
								c0.053-1.066,0.208-2.15,0.454-3.213c0.635-2.742,1.874-5.344,3.561-7.152c1.572-1.682,3.277-2.375,4.77-2.033l0.002-0.006
								c0,0,3.768,0.444,8.013,0.44C356.534,98.7,362.906,96.275,368.706,93.603z"/>
							<path id="XMLID_862_" style="opacity:0.7;fill:#FFFFFF;" d="M368.706,93.603c0,0-6.535,6.338-9.658,19.816
								c-0.613,2.647-0.987,5.108-1.191,7.348c-0.838,9.165,1.15,14.696,1.15,14.696c-4.034-4.951-8.689-9.932-14.846-12.955
								c-3.811-1.871-7.39-3.129-7.39-3.129l0.002-0.007c-1.492-0.349-2.719-1.722-3.39-3.924c-0.442-1.45-0.601-3.091-0.507-4.777
								c0.053-1.066,0.208-2.15,0.454-3.213c0.635-2.742,1.874-5.344,3.561-7.152c1.572-1.682,3.277-2.375,4.77-2.033l0.002-0.006
								c0,0,3.768,0.444,8.013,0.44C356.534,98.7,362.906,96.275,368.706,93.603z"/>
							<path id="XMLID_861_" style="opacity:0.05;" d="M357.857,120.767c-0.838,9.165,1.15,14.696,1.15,14.696
								c-4.034-4.951-8.689-9.932-14.846-12.955c-3.811-1.871-7.39-3.129-7.39-3.129l0.002-0.007
								c-1.492-0.349-2.719-1.722-3.39-3.924c-0.442-1.45-0.601-3.091-0.507-4.777C339.642,111.822,350.794,114.347,357.857,120.767
								z"/>
							<path id="XMLID_860_" style="fill:#27DEBF;" d="M386.672,100.208c1.557,5.108,1.69,11.178,0.645,17.139l0.001,0.003
								c-1.34,7.635-4.603,15.082-9.274,20.082c-8.317,8.903-17.938,6.672-21.49-4.98c-0.813-2.667-1.237-5.593-1.311-8.629
								c-0.175-7.479,1.785-15.62,5.351-22.142c0.501-0.92,1.034-1.804,1.599-2.652c0.234-0.353,0.476-0.701,0.721-1.04l0.003-0.001
								c0.349-0.483,0.706-0.951,1.076-1.402c0.385-0.469,0.778-0.924,1.184-1.357C373.496,86.326,383.119,88.552,386.672,100.208z"
								/>
							<path id="XMLID_858_" style="opacity:0.1;" d="M387.318,117.35c-1.34,7.635-4.603,15.082-9.274,20.082
								c-8.317,8.903-17.938,6.672-21.49-4.98c-0.813-2.667-1.237-5.593-1.311-8.629l0.003-0.001
								c1.142,1.299,4.252,2.702,4.891,0.86c0.078,2.715,0.46,5.309,1.174,7.65c1.021,3.349,2.592,5.824,4.542,7.162
								c1.664,1.14,3.553,1.402,5.61,0.771c2.001-0.607,4.101-2.053,6.079-4.166c3.973-4.253,6.88-10.605,8.296-17.229
								C385.839,118.871,386.629,119.211,387.318,117.35z"/>
							<path id="XMLID_855_" style="fill:#27DEBF;" d="M385.621,101.239c1.569,5.146,1.533,11.507,0.219,17.632
								c-1.416,6.623-4.323,12.976-8.296,17.229c-1.978,2.113-4.079,3.559-6.079,4.166c-2.057,0.631-3.946,0.369-5.61-0.771
								c-1.95-1.338-3.52-3.812-4.542-7.162c-0.714-2.341-1.096-4.935-1.174-7.65c-0.031-1.025-0.018-2.068,0.038-3.12
								c0.096-1.831,0.318-3.701,0.663-5.549c0.071-0.381,0.145-0.759,0.224-1.135c0.129-0.627,0.272-1.255,0.432-1.874
								c0.535-2.124,1.229-4.201,2.059-6.168c0.008-0.02,0.021-0.045,0.029-0.068c0.555-1.31,1.168-2.567,1.835-3.759
								c0.481-0.858,0.991-1.679,1.527-2.461c0.224-0.329,0.454-0.649,0.689-0.963c0.283-0.375,0.573-0.741,0.869-1.099
								c0.289-0.345,0.585-0.678,0.884-1.002c1.982-2.125,4.085-3.562,6.084-4.174C379.901,91.958,383.696,94.927,385.621,101.239z"
								/>
							<path id="XMLID_854_" style="opacity:0.3;" d="M385.621,101.239c1.569,5.146,1.533,11.507,0.219,17.632
								c-1.416,6.623-4.323,12.976-8.296,17.229c-1.978,2.113-4.079,3.559-6.079,4.166c-2.057,0.631-3.946,0.369-5.61-0.771
								c-1.95-1.338-3.52-3.812-4.542-7.162c-0.714-2.341-1.096-4.935-1.174-7.65c-0.031-1.025-0.018-2.068,0.038-3.12
								c0.096-1.831,0.318-3.701,0.663-5.549c0.071-0.381,0.145-0.759,0.224-1.135c0.129-0.627,0.272-1.255,0.432-1.874
								c0.535-2.124,1.229-4.201,2.059-6.168c0.008-0.02,0.021-0.045,0.029-0.068c0.555-1.31,1.168-2.567,1.835-3.759
								c0.481-0.858,0.991-1.679,1.527-2.461c0.224-0.329,0.454-0.649,0.689-0.963c0.283-0.375,0.573-0.741,0.869-1.099
								c0.289-0.345,0.585-0.678,0.884-1.002c1.982-2.125,4.085-3.562,6.084-4.174C379.901,91.958,383.696,94.927,385.621,101.239z"
								/>
						</g>
						<g id="XMLID_847_">
							<path id="XMLID_851_" style="fill:#27DEBF;" d="M370.962,108.839l-2.763,13.926c-2.007-0.127-5.386-0.28-8.063-0.157
								c0.007-0.347,0.021-0.693,0.041-1.044c0.096-1.831,0.318-3.701,0.663-5.549c0.071-0.381,0.145-0.759,0.224-1.135
								c0.129-0.627,0.272-1.255,0.432-1.874c0.535-2.124,1.229-4.201,2.059-6.168c0.008-0.02,0.021-0.045,0.029-0.068
								c0.124-0.288,0.247-0.575,0.376-0.857C367.115,107.65,370.962,108.839,370.962,108.839z"/>
						</g>
						<g id="XMLID_844_" style="opacity:0.4;">
							<path id="XMLID_1132_" style="fill:#FFFFFF;" d="M370.962,108.839l-2.763,13.926c-2.007-0.127-5.386-0.28-8.063-0.157
								c0.007-0.347,0.021-0.693,0.041-1.044c0.096-1.831,0.318-3.701,0.663-5.549c0.071-0.381,0.145-0.759,0.224-1.135
								c0.129-0.627,0.272-1.255,0.432-1.874c0.535-2.124,1.229-4.201,2.059-6.168c0.008-0.02,0.021-0.045,0.029-0.068
								c0.124-0.288,0.247-0.575,0.376-0.857C367.115,107.65,370.962,108.839,370.962,108.839z"/>
						</g>
						<g id="XMLID_842_">
							<path id="XMLID_843_" style="fill:#27DEBF;" d="M368.726,122.571c-1.449,0.442-2.671-0.465-3.269-2.426l-0.018-0.06
								c-0.94-3.082,0.085-7.506,2.285-9.861l0.043-0.046c0.586-0.628,1.22-1.058,1.831-1.245c1.449-0.442,2.671,0.465,3.269,2.427
								l0.018,0.06c0.94,3.082-0.085,7.506-2.285,9.861l-0.043,0.046C369.97,121.954,369.337,122.384,368.726,122.571
								L368.726,122.571z"/>
						</g>
						<g id="XMLID_840_" style="opacity:0.7;">
							<path id="XMLID_841_" style="fill:#FFFFFF;" d="M368.726,122.571c-1.449,0.442-2.671-0.465-3.269-2.426l-0.018-0.06
								c-0.94-3.082,0.085-7.506,2.285-9.861l0.043-0.046c0.586-0.628,1.22-1.058,1.831-1.245c1.449-0.442,2.671,0.465,3.269,2.427
								l0.018,0.06c0.94,3.082-0.085,7.506-2.285,9.861l-0.043,0.046C369.97,121.954,369.337,122.384,368.726,122.571
								L368.726,122.571z"/>
						</g>
					</g>
					<g id="XMLID_820_">
						<g id="XMLID_837_">
							<path id="XMLID_1125_" style="fill:#E0E0E0;" d="M365.361,86.744c-0.797,0.243-1.639-0.206-1.882-1.002l-4.251-13.943
								c-0.243-0.797,0.205-1.639,1.002-1.882c0.797-0.243,1.639,0.206,1.882,1.002l4.251,13.943
								C366.607,85.659,366.158,86.501,365.361,86.744z"/>
						</g>
						<g id="XMLID_1122_">
							<path id="XMLID_1123_" style="fill:#E0E0E0;" d="M353.711,94.012c-0.499,0.152-1.062,0.041-1.47-0.34l-10.652-9.95
								c-0.609-0.569-0.641-1.522-0.073-2.131c0.565-0.607,1.521-0.641,2.131-0.073l10.652,9.95
								c0.609,0.569,0.641,1.522,0.073,2.131C354.185,93.799,353.956,93.937,353.711,94.012z"/>
						</g>
						<g id="XMLID_1120_">
							<path id="XMLID_1121_" style="fill:#E0E0E0;" d="M360.997,165.23c-0.245,0.075-0.512,0.088-0.778,0.026
								c-0.812-0.188-1.317-0.998-1.129-1.809l3.289-14.2c0.188-0.812,0.997-1.318,1.809-1.129c0.812,0.188,1.317,0.998,1.129,1.809
								l-3.29,14.2C361.901,164.672,361.495,165.078,360.997,165.23z"/>
						</g>
						<g id="XMLID_835_">
							<path id="XMLID_836_" style="fill:#E0E0E0;" d="M387.452,159.206c-0.797,0.243-1.639-0.206-1.882-1.003l-4.251-13.943
								c-0.243-0.796,0.205-1.639,1.002-1.882c0.797-0.243,1.639,0.206,1.882,1.003l4.251,13.943
								C388.697,158.121,388.249,158.964,387.452,159.206z"/>
						</g>
						<g id="XMLID_832_">
							<path id="XMLID_833_" style="fill:#E0E0E0;" d="M403.14,140.177c-0.499,0.152-1.062,0.041-1.47-0.34l-10.653-9.949
								c-0.609-0.568-0.641-1.522-0.073-2.131c0.566-0.607,1.522-0.642,2.131-0.073l10.654,9.949
								c0.609,0.568,0.641,1.522,0.072,2.131C403.614,139.965,403.385,140.102,403.14,140.177z"/>
						</g>
						<g id="XMLID_830_">
							<path id="XMLID_831_" style="fill:#E0E0E0;" d="M413.141,121.399c-0.245,0.075-0.512,0.088-0.779,0.027l-14.199-3.291
								c-0.812-0.188-1.317-0.998-1.129-1.809c0.188-0.812,0.998-1.316,1.809-1.129l14.199,3.29
								c0.812,0.188,1.317,0.998,1.129,1.809C414.045,120.841,413.639,121.247,413.141,121.399z"/>
						</g>
						<g id="XMLID_827_">
							<path id="XMLID_828_" style="fill:#E0E0E0;" d="M412.417,100.133l-13.943,4.251c-0.797,0.243-1.639-0.206-1.882-1.002
								c-0.243-0.796,0.205-1.639,1.002-1.882l13.943-4.251c0.797-0.243,1.639,0.206,1.882,1.002
								C413.662,99.048,413.214,99.89,412.417,100.133z"/>
						</g>
						<g id="XMLID_825_">
							<path id="XMLID_826_" style="fill:#E0E0E0;" d="M391.208,92.732c-0.499,0.152-1.062,0.041-1.47-0.34
								c-0.609-0.568-0.641-1.522-0.073-2.131l9.949-10.652c0.564-0.608,1.521-0.641,2.131-0.073
								c0.608,0.568,0.641,1.522,0.072,2.131l-9.949,10.652C391.682,92.52,391.453,92.657,391.208,92.732z"/>
						</g>
						<g id="XMLID_821_">
							<path id="XMLID_823_" style="fill:#E0E0E0;" d="M379.085,86.276c-0.245,0.075-0.512,0.088-0.778,0.027
								c-0.812-0.188-1.317-0.998-1.129-1.809l3.291-14.2c0.188-0.812,0.999-1.317,1.809-1.129c0.812,0.188,1.317,0.998,1.129,1.809
								l-3.291,14.2C379.989,85.718,379.583,86.124,379.085,86.276z"/>
						</g>
					</g>
					<path id="XMLID_814_" style="fill:#FFA8A7;" d="M322.886,135.622c2.876-3.647,2.986-5.93,5.227-7.717
						c2.241-1.788,4.498-1.903,7.833-0.946c2.515,0.722,5.465,0.361,6.484,1.295c0.288,0.193-0.163,1.811-1.344,2.39
						c-1.421,0.697-3.716,0.527-5.409,0.536c-3.855,0.021-0.694,3.802-4.405,7.638C329.695,141.569,322.886,135.622,322.886,135.622
						z"/>
				</g>
			</g>
		</g>
	</g>
</g>
<g id="Paper_Planes">
	<g id="Paper_Plane">
		<g>
			<polygon id="XMLID_760_" style="fill:#27DEBF;" points="411.2,193.485 446.576,170.829 462.16,175.832 			"/>
			<polygon id="XMLID_758_" style="fill:#27DEBF;" points="411.2,193.485 441.776,167.986 434.981,160.14 			"/>
			<polygon id="XMLID_741_" style="fill:#27DEBF;" points="441.776,167.986 441.776,173.903 411.2,193.485 			"/>
			<polygon id="XMLID_736_" style="opacity:0.25;" points="441.776,167.986 441.776,173.903 411.2,193.485 			"/>
		</g>
		<g>
			<g>
				<path style="fill:#E0E0E0;" d="M449.031,164.562c-0.28,0-0.559-0.117-0.756-0.346c-0.361-0.418-0.316-1.05,0.102-1.411
					c0.616-0.533,1.221-1.082,1.814-1.648c0.399-0.381,1.031-0.367,1.414,0.033c0.381,0.399,0.366,1.032-0.033,1.414
					c-0.616,0.588-1.244,1.16-1.886,1.715C449.496,164.482,449.263,164.562,449.031,164.562z"/>
			</g>
			<g>
				<path style="fill:#E0E0E0;" d="M454.293,159.318c-0.234,0-0.47-0.082-0.659-0.248c-0.415-0.364-0.457-0.996-0.093-1.411
					c1.047-1.194,2.068-2.464,3.037-3.775c0.328-0.444,0.954-0.539,1.398-0.211c0.444,0.328,0.539,0.954,0.211,1.398
					c-1.002,1.357-2.06,2.671-3.143,3.906C454.848,159.202,454.571,159.318,454.293,159.318z M460.155,151.4
					c-0.181,0-0.364-0.049-0.529-0.152c-0.468-0.292-0.61-0.909-0.317-1.378c0.844-1.35,1.658-2.767,2.421-4.212
					c0.258-0.488,0.863-0.675,1.352-0.418c0.488,0.259,0.676,0.863,0.418,1.352c-0.786,1.488-1.625,2.947-2.495,4.339
					C460.814,151.234,460.488,151.4,460.155,151.4z M464.759,142.686c-0.135,0-0.272-0.027-0.403-0.085
					c-0.505-0.224-0.733-0.814-0.51-1.319c0.648-1.468,1.26-2.986,1.816-4.514c0.189-0.518,0.763-0.784,1.282-0.597
					c0.518,0.189,0.786,0.763,0.597,1.282c-0.571,1.568-1.199,3.128-1.867,4.637C465.509,142.464,465.143,142.686,464.759,142.686z
					 M468.14,133.423c-0.093,0-0.188-0.013-0.281-0.04c-0.529-0.155-0.834-0.711-0.679-1.241c0.453-1.546,0.863-3.132,1.22-4.715
					c0.122-0.539,0.653-0.878,1.195-0.756c0.539,0.121,0.877,0.656,0.756,1.195c-0.366,1.624-0.787,3.251-1.251,4.838
					C468.972,133.14,468.573,133.423,468.14,133.423z M470.307,123.802c-0.052,0-0.105-0.004-0.158-0.013
					c-0.546-0.087-0.917-0.6-0.83-1.145c0.254-1.594,0.461-3.219,0.616-4.833c0.052-0.55,0.553-0.968,1.091-0.899
					c0.55,0.053,0.952,0.541,0.899,1.091c-0.158,1.654-0.371,3.322-0.632,4.956C471.215,123.451,470.79,123.802,470.307,123.802z
					 M471.243,113.983c-0.011,0-0.022,0-0.032,0c-0.552-0.018-0.985-0.479-0.969-1.031c0.024-0.77,0.036-1.541,0.036-2.311
					c0-0.853-0.015-1.705-0.044-2.557c-0.02-0.552,0.412-1.016,0.964-1.034c0.571-0.042,1.016,0.412,1.034,0.964
					c0.031,0.875,0.046,1.751,0.046,2.627c0,0.791-0.012,1.582-0.036,2.373C472.224,113.555,471.78,113.983,471.243,113.983z
					 M470.893,104.127c-0.507,0-0.94-0.383-0.994-0.897c-0.166-1.618-0.391-3.238-0.668-4.816c-0.095-0.544,0.268-1.063,0.813-1.158
					c0.554-0.095,1.061,0.27,1.158,0.813c0.284,1.625,0.516,3.293,0.688,4.957c0.057,0.55-0.343,1.041-0.893,1.098
					C470.961,104.125,470.927,104.127,470.893,104.127z M469.185,94.413c-0.446,0-0.853-0.302-0.969-0.755
					c-0.398-1.574-0.859-3.142-1.37-4.659c-0.177-0.523,0.104-1.091,0.628-1.267c0.523-0.18,1.09,0.107,1.267,0.628
					c0.528,1.565,1.004,3.183,1.415,4.808c0.135,0.535-0.19,1.079-0.725,1.215C469.349,94.404,469.266,94.413,469.185,94.413z
					 M466.028,85.073c-0.387,0-0.755-0.226-0.918-0.604c-0.643-1.489-1.352-2.958-2.108-4.364c-0.262-0.486-0.079-1.093,0.407-1.354
					c0.485-0.261,1.093-0.079,1.354,0.407c0.783,1.457,1.518,2.978,2.183,4.519c0.219,0.508-0.015,1.096-0.522,1.314
					C466.294,85.047,466.161,85.073,466.028,85.073z M461.356,76.398c-0.325,0-0.644-0.158-0.836-0.45
					c-0.888-1.347-1.845-2.663-2.846-3.912c-0.346-0.431-0.276-1.06,0.155-1.405c0.433-0.345,1.061-0.275,1.405,0.155
					c1.04,1.297,2.034,2.664,2.955,4.063c0.304,0.461,0.177,1.081-0.285,1.385C461.736,76.344,461.544,76.398,461.356,76.398z
					 M455.202,68.702c-0.264,0-0.527-0.104-0.724-0.31c-1.095-1.148-2.267-2.288-3.483-3.388c-0.409-0.371-0.441-1.003-0.071-1.413
					c0.37-0.409,1.004-0.44,1.413-0.071c1.253,1.133,2.46,2.308,3.589,3.491c0.381,0.4,0.366,1.033-0.033,1.414
					C455.698,68.611,455.45,68.702,455.202,68.702z M447.893,62.081c-0.217,0-0.435-0.07-0.618-0.215
					c-1.251-0.986-2.57-1.96-3.919-2.895c-0.454-0.315-0.567-0.938-0.253-1.392c0.313-0.454,0.936-0.567,1.392-0.253
					c1.383,0.958,2.734,1.957,4.018,2.969c0.434,0.342,0.508,0.971,0.166,1.404C448.482,61.95,448.189,62.081,447.893,62.081z
					 M439.789,56.459c-0.178,0-0.357-0.047-0.521-0.147c-1.365-0.834-2.789-1.651-4.232-2.431c-0.486-0.262-0.668-0.869-0.405-1.354
					c0.262-0.485,0.871-0.67,1.354-0.405c1.475,0.796,2.931,1.631,4.326,2.483c0.471,0.288,0.62,0.903,0.332,1.375
					C440.454,56.289,440.125,56.459,439.789,56.459z M431.109,51.77c-0.143,0-0.29-0.031-0.429-0.098
					c-1.461-0.695-2.962-1.366-4.461-1.992c-0.51-0.213-0.75-0.799-0.537-1.309c0.213-0.511,0.801-0.75,1.309-0.537
					c1.528,0.64,3.06,1.323,4.549,2.033c0.499,0.237,0.711,0.834,0.473,1.332C431.841,51.56,431.483,51.77,431.109,51.77z
					 M330.134,49.285c-0.41,0-0.796-0.255-0.941-0.663c-0.187-0.521,0.085-1.093,0.604-1.278c1.565-0.56,3.147-1.098,4.701-1.598
					c0.532-0.167,1.09,0.12,1.259,0.646c0.169,0.526-0.12,1.09-0.646,1.259c-1.534,0.493-3.096,1.023-4.641,1.576
					C330.36,49.267,330.246,49.285,330.134,49.285z M422.012,47.955c-0.114,0-0.23-0.02-0.344-0.061
					c-1.503-0.551-3.061-1.082-4.63-1.58c-0.526-0.167-0.817-0.729-0.65-1.256c0.167-0.525,0.73-0.82,1.256-0.65
					c1.596,0.507,3.182,1.048,4.712,1.607c0.518,0.19,0.785,0.765,0.596,1.283C422.803,47.704,422.419,47.955,422.012,47.955z
					 M339.526,46.264c-0.435,0-0.835-0.285-0.961-0.724c-0.152-0.531,0.154-1.085,0.684-1.237c1.572-0.451,3.187-0.886,4.797-1.291
					c0.536-0.134,1.08,0.19,1.214,0.726c0.135,0.536-0.19,1.079-0.726,1.214c-1.59,0.399-3.182,0.828-4.732,1.273
					C339.709,46.251,339.617,46.264,339.526,46.264z M412.608,44.971c-0.087,0-0.175-0.011-0.263-0.035
					c-1.541-0.418-3.139-0.816-4.749-1.183c-0.538-0.122-0.875-0.658-0.752-1.197c0.122-0.537,0.649-0.879,1.197-0.752
					c1.636,0.373,3.26,0.777,4.827,1.203c0.533,0.145,0.848,0.693,0.703,1.227C413.451,44.678,413.047,44.971,412.608,44.971z
					 M349.096,43.858c-0.461,0-0.875-0.32-0.977-0.789c-0.116-0.539,0.227-1.071,0.767-1.188c1.617-0.35,3.255-0.675,4.867-0.968
					c0.552-0.099,1.064,0.264,1.163,0.806c0.098,0.544-0.263,1.064-0.806,1.163c-1.592,0.288-3.207,0.609-4.803,0.954
					C349.237,43.851,349.166,43.858,349.096,43.858z M402.988,42.782c-0.061,0-0.122-0.005-0.184-0.017
					c-1.574-0.293-3.199-0.562-4.83-0.801c-0.547-0.08-0.925-0.588-0.845-1.134c0.079-0.547,0.584-0.933,1.134-0.845
					c1.656,0.242,3.308,0.516,4.906,0.813c0.543,0.101,0.901,0.623,0.801,1.166C403.88,42.446,403.46,42.782,402.988,42.782z
					 M358.795,42.1c-0.488,0-0.916-0.358-0.988-0.855c-0.08-0.547,0.298-1.054,0.845-1.134c1.642-0.24,3.298-0.453,4.924-0.635
					c0.545-0.055,1.043,0.334,1.105,0.884c0.061,0.549-0.335,1.043-0.884,1.104c-1.603,0.179-3.236,0.389-4.855,0.625
					C358.892,42.097,358.843,42.1,358.795,42.1z M393.224,41.36c-0.035,0-0.071-0.002-0.107-0.006
					c-1.593-0.17-3.234-0.313-4.878-0.428c-0.551-0.039-0.967-0.517-0.929-1.067c0.039-0.551,0.522-0.949,1.067-0.929
					c1.669,0.116,3.335,0.263,4.952,0.435c0.549,0.059,0.946,0.551,0.888,1.101C394.163,40.979,393.729,41.36,393.224,41.36z
					 M368.594,41.011c-0.519,0-0.956-0.399-0.996-0.925c-0.042-0.551,0.371-1.03,0.922-1.072c1.655-0.125,3.322-0.223,4.956-0.289
					c0.555-0.057,1.019,0.406,1.04,0.958c0.023,0.552-0.406,1.018-0.958,1.04c-1.611,0.065-3.255,0.162-4.888,0.285
					C368.645,41.01,368.62,41.011,368.594,41.011z M383.38,40.68c-0.011,0-0.022,0-0.032-0.001c-1.43-0.045-2.868-0.067-4.277-0.067
					l-0.618,0.001c-0.002,0-0.003,0-0.005,0c-0.55,0-0.997-0.444-1-0.995c-0.003-0.553,0.443-1.002,0.995-1.005l0.628-0.001
					c1.43,0,2.89,0.023,4.34,0.069c0.552,0.017,0.985,0.479,0.969,1.03C384.362,40.252,383.917,40.68,383.38,40.68z"/>
			</g>
			<g>
				<path style="fill:#E0E0E0;" d="M323.107,51.99c-0.393,0-0.766-0.233-0.925-0.619c-0.21-0.511,0.033-1.096,0.544-1.306
					c0.778-0.32,1.558-0.635,2.334-0.941c0.516-0.199,1.095,0.051,1.298,0.563c0.202,0.514-0.05,1.095-0.563,1.298
					c-0.769,0.303-1.538,0.613-2.307,0.93C323.363,51.966,323.234,51.99,323.107,51.99z"/>
			</g>
		</g>
	</g>
	<g id="Paper_Plane_1_">
		<g id="XMLID_1220_">
			<polygon id="XMLID_352_" style="fill:#27DEBF;" points="100.444,143.16 146.429,120.62 113.265,152.155 			"/>
			<polygon id="XMLID_339_" style="fill:#27DEBF;" points="146.429,120.62 95.725,137.3 82.905,128.304 			"/>
			<polygon id="XMLID_337_" style="fill:#27DEBF;" points="95.725,137.3 97.729,150.176 100.444,143.16 146.429,120.62 			"/>
			<polygon id="XMLID_331_" style="opacity:0.25;" points="95.725,137.3 97.729,150.176 100.444,143.16 146.429,120.62 			"/>
			<polygon id="XMLID_1222_" style="fill:#27DEBF;" points="97.729,150.176 104.717,146.158 100.444,143.16 			"/>
			<polygon id="XMLID_1221_" style="opacity:0.25;" points="100.444,143.16 104.717,146.158 103.602,146.799 			"/>
		</g>
		<g>
			<path style="fill:#E0E0E0;" d="M103.899,278.13c-0.112,0-0.227-0.019-0.338-0.059c-1.622-0.583-3.205-1.18-4.706-1.774
				c-0.514-0.203-0.765-0.784-0.561-1.298c0.203-0.514,0.785-0.763,1.298-0.561c1.481,0.587,3.044,1.176,4.646,1.751
				c0.52,0.187,0.79,0.76,0.604,1.279C104.694,277.876,104.309,278.13,103.899,278.13z M94.612,274.443
				c-0.134,0-0.271-0.027-0.401-0.085c-1.557-0.685-3.094-1.397-4.569-2.12c-0.496-0.243-0.701-0.842-0.459-1.338
				c0.243-0.495,0.842-0.702,1.338-0.459c1.452,0.711,2.964,1.413,4.495,2.087c0.506,0.222,0.735,0.813,0.513,1.317
				C95.364,274.22,94.996,274.443,94.612,274.443z M85.645,270.039c-0.162,0-0.327-0.039-0.479-0.123
				c-1.487-0.814-2.956-1.668-4.363-2.535c-0.471-0.29-0.616-0.906-0.327-1.376c0.289-0.47,0.905-0.618,1.376-0.327
				c1.379,0.851,2.817,1.686,4.275,2.484c0.484,0.266,0.662,0.873,0.396,1.357C86.341,269.852,85.998,270.039,85.645,270.039z
				 M77.149,264.79c-0.197,0-0.396-0.059-0.571-0.18c-1.397-0.975-2.762-1.991-4.056-3.021c-0.433-0.344-0.504-0.973-0.16-1.404
				c0.343-0.433,0.972-0.505,1.404-0.16c1.262,1.003,2.593,1.994,3.956,2.944c0.453,0.316,0.563,0.939,0.248,1.393
				C77.776,264.641,77.465,264.79,77.149,264.79z M69.342,258.569c-0.241,0-0.483-0.087-0.675-0.262
				c-1.255-1.147-2.47-2.343-3.612-3.554c-0.379-0.402-0.36-1.035,0.041-1.414c0.401-0.38,1.034-0.359,1.414,0.041
				c1.108,1.176,2.288,2.336,3.507,3.45c0.407,0.373,0.436,1.006,0.063,1.413C69.883,258.46,69.613,258.569,69.342,258.569z
				 M62.501,251.306c-0.293,0-0.582-0.127-0.779-0.373c-1.058-1.313-2.074-2.686-3.021-4.08c-0.31-0.457-0.19-1.079,0.267-1.389
				c0.456-0.312,1.078-0.191,1.39,0.266c0.915,1.35,1.897,2.679,2.921,3.949c0.347,0.43,0.279,1.06-0.151,1.405
				C62.943,251.234,62.721,251.306,62.501,251.306z M56.901,243.045c-0.35,0-0.688-0.183-0.872-0.509
				c-0.822-1.458-1.6-2.979-2.31-4.521c-0.231-0.501-0.012-1.095,0.49-1.326c0.5-0.232,1.095-0.011,1.326,0.49
				c0.688,1.492,1.439,2.964,2.235,4.374c0.271,0.48,0.102,1.091-0.38,1.362C57.236,243.004,57.067,243.045,56.901,243.045z
				 M52.717,233.983c-0.406,0-0.789-0.25-0.938-0.653c-0.576-1.557-1.107-3.177-1.581-4.816c-0.153-0.53,0.153-1.085,0.684-1.238
				c0.531-0.15,1.085,0.153,1.238,0.684c0.46,1.593,0.976,3.166,1.534,4.678c0.192,0.518-0.072,1.093-0.591,1.284
				C52.95,233.963,52.833,233.983,52.717,233.983z M49.934,224.392c-0.46,0-0.874-0.319-0.976-0.787
				c-0.351-1.612-0.663-3.285-0.929-4.973c-0.085-0.546,0.287-1.058,0.833-1.144c0.546-0.083,1.057,0.287,1.144,0.833
				c0.259,1.649,0.564,3.283,0.907,4.857c0.117,0.54-0.225,1.072-0.765,1.19C50.077,224.385,50.004,224.392,49.934,224.392z
				 M48.373,214.52c-0.506,0-0.94-0.382-0.993-0.895c-0.17-1.614-0.307-3.307-0.408-5.029c-0.033-0.551,0.388-1.024,0.939-1.057
				c0.549-0.014,1.023,0.389,1.057,0.939c0.1,1.692,0.234,3.354,0.4,4.938c0.058,0.55-0.341,1.041-0.89,1.099
				C48.442,214.518,48.407,214.52,48.373,214.52z M47.853,204.539c-0.006,0-0.012,0-0.018,0c-0.553-0.01-0.992-0.466-0.982-1.018
				c0.03-1.684,0.131-3.39,0.301-5.072c0.056-0.549,0.542-0.94,1.096-0.895c0.55,0.056,0.95,0.546,0.895,1.096
				c-0.165,1.627-0.263,3.278-0.291,4.906C48.843,204.103,48.397,204.539,47.853,204.539z M48.851,194.599
				c-0.06,0-0.12-0.005-0.182-0.017c-0.543-0.1-0.902-0.62-0.803-1.164c0.304-1.655,0.679-3.322,1.115-4.955
				c0.143-0.534,0.7-0.852,1.224-0.708c0.534,0.143,0.851,0.69,0.708,1.224c-0.423,1.582-0.786,3.197-1.08,4.801
				C49.745,194.262,49.325,194.599,48.851,194.599z M51.428,184.945c-0.11,0-0.223-0.018-0.333-0.058
				c-0.521-0.184-0.794-0.755-0.609-1.275c0.56-1.587,1.193-3.174,1.882-4.718c0.225-0.504,0.813-0.733,1.32-0.506
				c0.504,0.225,0.731,0.815,0.506,1.32c-0.666,1.495-1.279,3.033-1.823,4.569C52.226,184.69,51.84,184.945,51.428,184.945z
				 M55.494,175.82c-0.161,0-0.325-0.039-0.477-0.121c-0.485-0.265-0.665-0.871-0.401-1.356c0.808-1.484,1.683-2.952,2.602-4.362
				c0.301-0.463,0.919-0.593,1.384-0.292c0.463,0.302,0.594,0.921,0.292,1.384c-0.891,1.366-1.738,2.788-2.52,4.226
				C56.192,175.631,55.848,175.82,55.494,175.82z M60.949,167.449c-0.213,0-0.429-0.068-0.61-0.209
				c-0.438-0.338-0.518-0.966-0.18-1.402c1.033-1.336,2.132-2.646,3.266-3.891c0.372-0.405,1.004-0.438,1.413-0.065
				c0.408,0.372,0.438,1.004,0.065,1.413c-1.098,1.205-2.162,2.473-3.162,3.766C61.543,167.316,61.248,167.449,60.949,167.449z
				 M67.678,160.069c-0.268,0-0.534-0.107-0.731-0.318c-0.377-0.403-0.354-1.036,0.05-1.413c1.236-1.153,2.533-2.267,3.854-3.31
				c0.435-0.344,1.063-0.27,1.404,0.164c0.343,0.434,0.27,1.063-0.164,1.404c-1.278,1.01-2.533,2.088-3.73,3.204
				C68.167,159.98,67.922,160.069,67.678,160.069z M75.515,153.877c-0.323,0-0.642-0.156-0.834-0.446
				c-0.306-0.46-0.181-1.081,0.279-1.387c1.401-0.932,2.861-1.818,4.34-2.637c0.482-0.267,1.092-0.094,1.359,0.391
				c0.268,0.483,0.093,1.092-0.391,1.359c-1.432,0.792-2.845,1.651-4.201,2.553C75.898,153.823,75.705,153.877,75.515,153.877z
				 M84.252,149.039c-0.381,0-0.745-0.219-0.912-0.588c-0.228-0.503-0.004-1.096,0.499-1.323c1.53-0.692,3.112-1.335,4.701-1.909
				c0.518-0.188,1.093,0.08,1.28,0.601c0.188,0.52-0.081,1.093-0.601,1.28c-1.54,0.557-3.073,1.18-4.557,1.851
				C84.53,149.011,84.39,149.039,84.252,149.039z"/>
		</g>
	</g>
</g>
<g id="Icon">
	<g id="At">
		<path style="fill:#27DEBF;" d="M335.025,415.38c0.006-0.369-0.165-0.666-0.511-0.893c-0.585-0.457-1.326-0.673-2.206-0.648
			c-0.885,0.024-1.655,0.212-2.315,0.56l-4.026,2.134c0.331-0.596,0.578-1.207,0.727-1.834c0.118-0.495,0.172-0.994,0.16-1.499
			c-0.02-0.841-0.003-5.505,0.001-5.945c0.008-0.902-0.192-1.821-0.6-2.757c-0.61-1.392-1.803-2.739-3.578-4.046
			c-1.229-0.945-2.704-1.981-4.425-3.109c-1.722-1.128-3.291-2.084-4.707-2.871c-3.652-1.967-7.598-3.539-11.838-4.72
			c-4.242-1.18-8.803-1.75-13.673-1.712c-4.87,0.04-10.055,0.779-15.555,2.217c-5.499,1.436-11.303,3.773-17.413,7.012
			c-5.212,2.763-9.151,5.633-11.808,8.608c-2.662,2.977-4.273,5.917-4.833,8.813c-0.173,0.896-0.253,1.782-0.243,2.658
			c0.012,0.983-0.006,5.191-0.004,6.035c0.004,1.992,0.477,3.933,1.419,5.822c1.343,2.69,3.411,5.126,6.203,7.31
			c0.588,0.456,1.442,1.068,2.564,1.836c1.115,0.768,2.31,1.567,3.583,2.401c1.273,0.834,2.508,1.628,3.71,2.378
			c1.206,0.752,2.185,1.342,2.941,1.767c3.501,1.868,7.468,3.329,11.895,4.381c4.424,1.055,9.086,1.57,13.985,1.546
			c4.893-0.022,9.954-0.666,15.181-1.928c5.222-1.263,10.443-3.273,15.655-6.035c4.192-2.222,7.54-4.324,10.048-6.302
			c2.506-1.979,4.44-3.832,5.81-5.563c1.368-1.73,2.296-3.376,2.787-4.935c0.49-1.56,0.841-3.017,1.051-4.37
			c0.01-0.065,0.015-0.128,0.015-0.189C335.027,421.138,335.024,415.437,335.025,415.38z M320.028,422.565
			c-0.537,0.786-1.3,1.65-2.297,2.593c-1.003,0.942-2.299,1.957-3.893,3.04c-1.6,1.082-3.626,2.276-6.082,3.577
			c-3.473,1.841-7.001,3.223-10.58,4.145c-3.579,0.921-7.091,1.423-10.542,1.507c-3.444,0.085-6.768-0.21-9.963-0.882
			c-3.193-0.671-6.166-1.698-8.92-3.076c-0.819-0.393-1.791-0.942-2.918-1.645c-1.127-0.703-2.279-1.438-3.452-2.207
			c-1.171-0.767-2.278-1.51-3.322-2.229c-1.043-0.719-1.83-1.321-2.357-1.81c-2.035-1.759-3.477-3.625-4.327-5.601
			c-0.097-0.225-0.182-0.451-0.261-0.677c0.606-1.733,1.738-3.461,3.405-5.184c1.93-1.999,4.633-3.92,8.107-5.762
			c4.132-2.191,8.061-3.858,11.787-5.005c2.063-0.634,4.07-1.103,6.03-1.437l-1.031,0.546c-0.659,0.349-1.028,0.782-1.108,1.298
			c-0.078,0.516,0.156,0.951,0.704,1.31l0.674,0.442c-1.727-0.207-3.504-0.197-5.326,0.028c-1.823,0.228-3.959,0.991-6.413,2.292
			c-2.218,1.176-3.836,2.477-4.854,3.904c-0.893,1.248-1.335,2.531-1.332,3.849c0,0.188,0.002,5.124,0.001,6.139
			c0,0.187,0.009,0.374,0.027,0.562c0.146,1.516,0.829,3.063,2.041,4.637c1.21,1.576,2.968,3.113,5.262,4.616
			c2.295,1.504,4.722,2.686,7.282,3.545c2.56,0.861,5.155,1.391,7.792,1.59c2.631,0.201,5.213,0.06,7.731-0.418
			c2.522-0.478,4.891-1.305,7.107-2.479c1.857-0.984,3.292-1.892,4.3-2.723c1.008-0.83,1.731-1.598,2.169-2.303
			c0.437-0.706,0.677-1.364,0.717-1.977c0.044-0.611,0.05-1.209,0.032-1.79c1.688,0.111,3.719-0.033,6.091-0.433
			c2.366-0.399,5.052-1.393,8.046-2.979c0.159-0.085,0.304-0.177,0.459-0.264C320.578,421.712,320.321,422.131,320.028,422.565z
			 M284.339,416.665c2.479,0.312,4.947,1.267,7.389,2.867c0.891,0.584,1.63,1.155,2.229,1.716c-0.346,0.246-0.728,0.489-1.172,0.724
			c-2.1,1.112-4.387,1.528-6.871,1.247c-2.486-0.278-4.952-1.219-7.396-2.82c-0.917-0.6-1.678-1.194-2.283-1.78
			c0.315-0.226,0.659-0.447,1.059-0.659C279.509,416.788,281.859,416.355,284.339,416.665z M312.214,410.745
			c-1.062,0.462-2.251,0.733-3.583,0.79c-1.576,0.068-2.967-0.292-4.165-1.076l-13.536-8.865c1.363,0.158,2.716,0.376,4.054,0.695
			c3.231,0.769,6.398,1.958,9.503,3.563c1.477,0.755,2.951,1.614,4.422,2.578C310.097,409.209,311.185,409.979,312.214,410.745z"/>
		<path style="opacity:0.2;" d="M335.025,415.38c0.006-0.369-0.165-0.666-0.511-0.893c-0.585-0.457-1.326-0.673-2.206-0.648
			c-0.885,0.024-1.655,0.212-2.315,0.56l-4.026,2.134c0.331-0.596,0.578-1.207,0.727-1.834c0.118-0.495,0.172-0.994,0.16-1.499
			c-0.02-0.841-0.003-5.505,0.001-5.945c0.008-0.902-0.192-1.821-0.6-2.757c-0.61-1.392-1.803-2.739-3.578-4.046
			c-1.229-0.945-2.704-1.981-4.425-3.109c-1.722-1.128-3.291-2.084-4.707-2.871c-3.652-1.967-7.598-3.539-11.838-4.72
			c-4.242-1.18-8.803-1.75-13.673-1.712c-4.87,0.04-10.055,0.779-15.555,2.217c-5.499,1.436-11.303,3.773-17.413,7.012
			c-5.212,2.763-9.151,5.633-11.808,8.608c-2.662,2.977-4.273,5.917-4.833,8.813c-0.173,0.896-0.253,1.782-0.243,2.658
			c0.012,0.983-0.006,5.191-0.004,6.035c0.004,1.992,0.477,3.933,1.419,5.822c1.343,2.69,3.411,5.126,6.203,7.31
			c0.588,0.456,1.442,1.068,2.564,1.836c1.115,0.768,2.31,1.567,3.583,2.401c1.273,0.834,2.508,1.628,3.71,2.378
			c1.206,0.752,2.185,1.342,2.941,1.767c3.501,1.868,7.468,3.329,11.895,4.381c4.424,1.055,9.086,1.57,13.985,1.546
			c4.893-0.022,9.954-0.666,15.181-1.928c5.222-1.263,10.443-3.273,15.655-6.035c4.192-2.222,7.54-4.324,10.048-6.302
			c2.506-1.979,4.44-3.832,5.81-5.563c1.368-1.73,2.296-3.376,2.787-4.935c0.49-1.56,0.841-3.017,1.051-4.37
			c0.01-0.065,0.015-0.128,0.015-0.189C335.027,421.138,335.024,415.437,335.025,415.38z M320.028,422.565
			c-0.537,0.786-1.3,1.65-2.297,2.593c-1.003,0.942-2.299,1.957-3.893,3.04c-1.6,1.082-3.626,2.276-6.082,3.577
			c-3.473,1.841-7.001,3.223-10.58,4.145c-3.579,0.921-7.091,1.423-10.542,1.507c-3.444,0.085-6.768-0.21-9.963-0.882
			c-3.193-0.671-6.166-1.698-8.92-3.076c-0.819-0.393-1.791-0.942-2.918-1.645c-1.127-0.703-2.279-1.438-3.452-2.207
			c-1.171-0.767-2.278-1.51-3.322-2.229c-1.043-0.719-1.83-1.321-2.357-1.81c-2.035-1.759-3.477-3.625-4.327-5.601
			c-0.097-0.225-0.182-0.451-0.261-0.677c0.606-1.733,1.738-3.461,3.405-5.184c1.93-1.999,4.633-3.92,8.107-5.762
			c4.132-2.191,8.061-3.858,11.787-5.005c2.063-0.634,4.07-1.103,6.03-1.437l-1.031,0.546c-0.659,0.349-1.028,0.782-1.108,1.298
			c-0.078,0.516,0.156,0.951,0.704,1.31l0.674,0.442c-1.727-0.207-3.504-0.197-5.326,0.028c-1.823,0.228-3.959,0.991-6.413,2.292
			c-2.218,1.176-3.836,2.477-4.854,3.904c-0.893,1.248-1.335,2.531-1.332,3.849c0,0.188,0.002,5.124,0.001,6.139
			c0,0.187,0.009,0.374,0.027,0.562c0.146,1.516,0.829,3.063,2.041,4.637c1.21,1.576,2.968,3.113,5.262,4.616
			c2.295,1.504,4.722,2.686,7.282,3.545c2.56,0.861,5.155,1.391,7.792,1.59c2.631,0.201,5.213,0.06,7.731-0.418
			c2.522-0.478,4.891-1.305,7.107-2.479c1.857-0.984,3.292-1.892,4.3-2.723c1.008-0.83,1.731-1.598,2.169-2.303
			c0.437-0.706,0.677-1.364,0.717-1.977c0.044-0.611,0.05-1.209,0.032-1.79c1.688,0.111,3.719-0.033,6.091-0.433
			c2.366-0.399,5.052-1.393,8.046-2.979c0.159-0.085,0.304-0.177,0.459-0.264C320.578,421.712,320.321,422.131,320.028,422.565z
			 M284.339,416.665c2.479,0.312,4.947,1.267,7.389,2.867c0.891,0.584,1.63,1.155,2.229,1.716c-0.346,0.246-0.728,0.489-1.172,0.724
			c-2.1,1.112-4.387,1.528-6.871,1.247c-2.486-0.278-4.952-1.219-7.396-2.82c-0.917-0.6-1.678-1.194-2.283-1.78
			c0.315-0.226,0.659-0.447,1.059-0.659C279.509,416.788,281.859,416.355,284.339,416.665z M312.214,410.745
			c-1.062,0.462-2.251,0.733-3.583,0.79c-1.576,0.068-2.967-0.292-4.165-1.076l-13.536-8.865c1.363,0.158,2.716,0.376,4.054,0.695
			c3.231,0.769,6.398,1.958,9.503,3.563c1.477,0.755,2.951,1.614,4.422,2.578C310.097,409.209,311.185,409.979,312.214,410.745z"/>
		<path style="opacity:0.1;" d="M251.112,419.3c0.607-1.733,1.738-3.461,3.404-5.184c1.93-1.999,4.634-3.92,8.107-5.762
			c4.132-2.191,8.06-3.858,11.787-5.005c2.063-0.634,4.07-1.103,6.03-1.437l3.642-1.93c0.656-0.348,1.427-0.521,2.308-0.513
			c0.874,0.009,1.588,0.192,2.136,0.551l2.404,1.574c1.363,0.158,2.716,0.376,4.054,0.695c3.232,0.769,6.398,1.958,9.503,3.563
			c1.477,0.755,2.951,1.614,4.422,2.578c1.189,0.778,2.276,1.548,3.305,2.314c0.195-0.085,0.394-0.164,0.58-0.262
			c1.197-0.636,1.894-1.404,2.091-2.306c0.193-0.901-0.449-1.906-1.924-3.016c-1.228-0.946-2.579-1.9-4.052-2.864
			c-1.471-0.964-2.945-1.822-4.422-2.578c-3.105-1.606-6.271-2.794-9.503-3.563c-3.236-0.77-6.545-1.071-9.919-0.906
			c-3.38,0.165-6.935,0.822-10.655,1.966c-3.726,1.148-7.655,2.814-11.787,5.005c-3.473,1.841-6.177,3.763-8.107,5.762
			c-1.933,1.999-3.15,4.004-3.658,6.016c-0.502,2.013-0.333,4.005,0.515,5.979c0.425,0.988,0.998,1.949,1.719,2.882
			c-0.721-0.933-1.294-1.894-1.719-2.882C251.276,419.751,251.191,419.526,251.112,419.3z"/>
		<path style="opacity:0.1;" d="M291.729,413.398c-2.443-1.6-4.91-2.556-7.389-2.867c-2.48-0.31-4.83,0.123-7.045,1.296
			c-2.101,1.112-3.028,2.417-2.793,3.918c0.147,0.942,0.728,1.903,1.743,2.883c-0.003-0.003-0.006-0.005-0.009-0.008
			c0.315-0.226,0.659-0.447,1.059-0.659c2.214-1.173,4.564-1.606,7.044-1.296c2.479,0.312,4.947,1.267,7.39,2.867
			c0.891,0.584,1.629,1.155,2.229,1.716c-0.168,0.119-0.345,0.238-0.532,0.355c1.762-1.078,2.557-2.269,2.366-3.573
			C295.574,416.578,294.225,415.034,291.729,413.398z"/>
		<path style="opacity:0.1;" d="M284.16,430.535c-2.637-0.199-5.232-0.729-7.792-1.59c-2.56-0.859-4.987-2.042-7.282-3.545
			c-2.294-1.503-4.052-3.04-5.262-4.616c-1.211-1.574-1.895-3.121-2.041-4.637c-0.029-0.298-0.018-0.593-0.002-0.888
			c-0.006,0.107-0.027,0.213-0.027,0.321c0.001,0.188,0.002,5.124,0.001,6.139c0,0.187,0.009,0.374,0.027,0.562
			c0.147,1.516,0.83,3.063,2.041,4.637c1.21,1.576,2.968,3.113,5.262,4.616c2.295,1.504,4.722,2.686,7.282,3.545
			c2.56,0.861,5.155,1.391,7.792,1.59L284.16,430.535z"/>
		<path style="opacity:0.1;" d="M306.216,418.844c0.019,0.581,0.012,1.179-0.032,1.79l0.032,4.344
			c1.688,0.111,3.718-0.033,6.09-0.433l0-6.134C309.935,418.811,307.904,418.956,306.216,418.844z"/>
		<path style="opacity:0.1;" d="M270.493,443.143c-4.427-1.052-8.394-2.513-11.895-4.381c-0.757-0.425-1.736-1.015-2.941-1.767
			c-1.203-0.75-2.438-1.544-3.71-2.378c-1.273-0.834-2.468-1.633-3.583-2.401c-1.122-0.767-1.976-1.38-2.564-1.836
			c-2.792-2.184-4.86-4.62-6.203-7.31c-0.948-1.901-1.411-3.856-1.408-5.863c0,0.047-0.006,0.094-0.006,0.141
			c0.012,0.983-0.006,5.191-0.004,6.035c0.004,1.992,0.477,3.933,1.419,5.822c1.343,2.69,3.411,5.126,6.203,7.31
			c0.588,0.456,1.442,1.068,2.564,1.836c1.115,0.768,2.31,1.567,3.583,2.401c1.273,0.834,2.508,1.628,3.71,2.378
			c1.206,0.752,2.185,1.342,2.941,1.767c3.501,1.868,7.468,3.329,11.895,4.381c4.424,1.055,9.086,1.57,13.985,1.546v-6.134
			C279.579,444.713,274.917,444.198,270.493,443.143z"/>
		<path id="XMLID_733_" style="fill:#27DEBF;" d="M322.679,400.453c1.776,1.307,2.968,2.655,3.578,4.046
			c0.606,1.394,0.754,2.749,0.438,4.068c-0.315,1.319-1.032,2.573-2.149,3.755c-1.117,1.184-2.519,2.22-4.194,3.11
			c-2.994,1.587-5.68,2.581-8.046,2.979c-2.372,0.4-4.403,0.544-6.091,0.433c0.019,0.581,0.012,1.179-0.032,1.79
			c-0.04,0.613-0.28,1.272-0.717,1.978c-0.437,0.706-1.16,1.473-2.169,2.303c-1.008,0.83-2.443,1.738-4.3,2.723
			c-2.216,1.174-4.585,2.001-7.107,2.479c-2.518,0.478-5.1,0.619-7.731,0.418c-2.637-0.199-5.232-0.729-7.792-1.59
			c-2.56-0.859-4.987-2.042-7.282-3.545c-2.294-1.503-4.052-3.04-5.262-4.616c-1.211-1.574-1.895-3.121-2.041-4.637
			c-0.149-1.517,0.283-2.989,1.304-4.416c1.017-1.426,2.635-2.728,4.853-3.904c2.454-1.301,4.59-2.063,6.413-2.292
			c1.822-0.225,3.599-0.235,5.326-0.028l-0.674-0.442c-0.548-0.359-0.782-0.795-0.704-1.31c0.081-0.516,0.45-0.949,1.108-1.298
			l4.673-2.476c0.656-0.348,1.426-0.521,2.308-0.513c0.874,0.009,1.588,0.192,2.136,0.551l15.94,10.439
			c1.197,0.784,2.589,1.144,4.165,1.076c1.577-0.067,2.964-0.417,4.163-1.053c1.197-0.636,1.894-1.404,2.09-2.306
			c0.193-0.901-0.449-1.906-1.924-3.016c-1.228-0.945-2.579-1.9-4.052-2.864c-1.471-0.964-2.945-1.822-4.422-2.578
			c-3.105-1.606-6.271-2.794-9.503-3.563c-3.236-0.77-6.545-1.071-9.919-0.906c-3.381,0.165-6.935,0.822-10.655,1.966
			c-3.726,1.147-7.655,2.814-11.787,5.005c-3.473,1.841-6.177,3.763-8.107,5.762c-1.933,1.999-3.15,4.004-3.658,6.016
			c-0.502,2.013-0.333,4.005,0.515,5.979c0.849,1.976,2.292,3.842,4.327,5.601c0.528,0.489,1.314,1.091,2.357,1.81
			c1.043,0.719,2.151,1.462,3.322,2.229c1.174,0.769,2.326,1.504,3.452,2.207c1.127,0.703,2.099,1.251,2.918,1.645
			c2.754,1.378,5.728,2.405,8.92,3.076c3.195,0.673,6.519,0.967,9.963,0.882c3.451-0.084,6.963-0.586,10.542-1.507
			c3.579-0.921,7.107-2.303,10.58-4.145c2.457-1.301,4.483-2.495,6.083-3.577c1.594-1.083,2.89-2.098,3.893-3.04
			c0.996-0.944,1.76-1.807,2.297-2.593c0.531-0.785,0.966-1.531,1.296-2.239c0.262-0.609,0.496-1.074,0.711-1.396
			c0.215-0.32,0.65-0.656,1.311-1.005l6.648-3.524c0.66-0.348,1.429-0.536,2.315-0.56c0.88-0.025,1.62,0.191,2.205,0.648
			c0.399,0.261,0.566,0.617,0.496,1.068c-0.21,1.353-0.561,2.81-1.051,4.37c-0.491,1.559-1.419,3.205-2.787,4.935
			c-1.37,1.731-3.304,3.584-5.81,5.563c-2.508,1.978-5.856,4.08-10.048,6.302c-5.212,2.763-10.432,4.773-15.654,6.036
			c-5.227,1.262-10.288,1.905-15.181,1.928c-4.899,0.024-9.561-0.491-13.985-1.546c-4.427-1.052-8.394-2.513-11.895-4.381
			c-0.757-0.425-1.736-1.015-2.941-1.767c-1.202-0.75-2.437-1.544-3.71-2.378c-1.273-0.834-2.468-1.633-3.582-2.401
			c-1.122-0.767-1.976-1.38-2.564-1.836c-2.792-2.184-4.86-4.62-6.203-7.31c-1.34-2.688-1.731-5.481-1.171-8.38
			c0.559-2.897,2.17-5.836,4.833-8.813c2.658-2.975,6.597-5.845,11.808-8.608c6.111-3.239,11.914-5.576,17.413-7.012
			c5.501-1.438,10.685-2.176,15.556-2.217c4.87-0.038,9.431,0.532,13.673,1.712c4.24,1.181,8.185,2.754,11.838,4.72
			c1.417,0.787,2.986,1.743,4.707,2.871C319.975,398.472,321.45,399.507,322.679,400.453z M278.52,420.4
			c2.444,1.601,4.91,2.542,7.396,2.82c2.484,0.28,4.77-0.135,6.871-1.248c2.215-1.173,3.219-2.488,3.006-3.942
			c-0.218-1.452-1.567-2.997-4.063-4.632c-2.443-1.6-4.91-2.555-7.389-2.867c-2.48-0.31-4.83,0.123-7.045,1.296
			c-2.1,1.112-3.028,2.417-2.793,3.918C274.736,417.248,276.075,418.799,278.52,420.4z"/>
	</g>
</g>
<g id="Envelope">
	<g id="Mail">
		<path id="XMLID_767_" style="fill:#27DEBF;" d="M324.076,373.206v0.735c0,1.177,0.826,2.607,1.845,3.195l39.578,22.85
			c1.019,0.588,2.671,0.588,3.69,0l65.538-37.839c1.019-0.588,1.845-2.019,1.845-3.195v-0.736c0-1.177-0.826-2.607-1.845-3.196
			l-39.578-22.85c-1.019-0.588-2.671-0.588-3.69,0l-65.538,37.839C324.902,370.599,324.076,372.029,324.076,373.206z"/>
		<path id="XMLID_763_" style="fill:#27DEBF;" d="M324.076,373.206v0.735c0,1.177,0.826,2.607,1.845,3.195l39.578,22.85
			c1.019,0.588,2.671,0.588,3.69,0l65.538-37.839c1.019-0.588,1.845-2.019,1.845-3.195v-0.736c0-1.177-0.826-2.607-1.845-3.196
			l-39.578-22.85c-1.019-0.588-2.671-0.588-3.69,0l-65.538,37.839C324.902,370.599,324.076,372.029,324.076,373.206z"/>
		<path style="opacity:0.2;" d="M367.344,346.095l-41.423,23.916c-1.019,0.588-1.845,2.019-1.845,3.195v0.735
			c0,1.177,0.826,2.607,1.845,3.195l39.578,22.85c0.509,0.294,1.177,0.441,1.844,0.441h0.001V346.095z"/>
		<path style="opacity:0.15;" d="M367.344,346.095l-41.423,23.916c-1.019,0.588-1.845,2.019-1.845,3.195v0.735
			c0,1.177,0.826,2.607,1.845,3.195l39.578,22.85c0.509,0.294,1.177,0.441,1.844,0.441h0.001V346.095z"/>
		<path style="opacity:0.2;" d="M434.726,355.022l-39.578-22.85c-1.019-0.588-2.671-0.588-3.69,0l-24.115,13.923v54.334h-0.001
			c0.668,0,1.336-0.147,1.846-0.441l65.538-37.839c1.019-0.588,1.845-2.019,1.845-3.195v-0.736
			C436.572,357.041,435.745,355.611,434.726,355.022z"/>
		<path id="XMLID_762_" style="fill:#27DEBF;" d="M359.162,391.332l-33.241-19.192c-1.019-0.588-1.019-1.542,0-2.13l65.538-37.839
			c1.019-0.588,2.671-0.588,3.69,0l39.578,22.85c1.019,0.588,1.019,1.542,0,2.13l-10.872,6.277l-3.806,2.198l-50.859,29.364
			c-1.019,0.588-2.671,0.588-3.69,0l-3.224-1.862L359.162,391.332z"/>
		<path style="opacity:0.15;" d="M389.337,359.45l45.39-4.428l-44.989,2.547l5.411-25.397c-0.553-0.319-1.288-0.449-2.01-0.423
			l-8.488,34.33l-59.479,4.906c-0.043,0.415,0.2,0.838,0.749,1.156l48.035-2.788l-6.612,26.079l8.454-26.186h0l8.204-0.476
			c1.033-0.06,1.975-0.477,2.707-1.132l0.005-0.001l0.002-0.006c0.683-0.614,1.183-1.434,1.385-2.381L389.337,359.45z"/>
		<path id="XMLID_740_" style="opacity:0.3;fill:#FFFFFF;" d="M339.363,369.815l45.288-3.735l1.622-6.489l0.895-3.613l5.978-24.229
			c-0.613,0.022-1.218,0.153-1.686,0.423l-32.769,18.919l-32.769,18.919c-0.469,0.271-0.712,0.62-0.749,0.975l9.084-0.749
			L339.363,369.815z"/>
	</g>
</g>
</svg>
